<?xml version="1.0" standalone="yes"?>

<svg version="1.1" viewBox="0.0 0.0 960.0 550.0" fill="none" stroke="none" stroke-linecap="square" stroke-miterlimit="10" xmlns="http://www.w3.org/2000/svg" xmlns:xlink="http://www.w3.org/1999/xlink"><clipPath id="p.0"><path d="m0 0l960.0 0l0 550.0l-960.0 0l0 -550.0z" clip-rule="nonzero"></path></clipPath><g clip-path="url(#p.0)"><path fill="#000000" fill-opacity="0.0" d="m0 0l960.4698 0l0 550.31494l-960.4698 0z" fill-rule="nonzero"></path><path fill="#ffffff" d="m8.0 368.0l944.0 0l0 64.0l-944.0 0z" fill-rule="nonzero"></path><path stroke="#6aa84f" stroke-width="3.0" stroke-linejoin="round" stroke-linecap="butt" d="m8.0 368.0l944.0 0l0 64.0l-944.0 0z" fill-rule="nonzero"></path><path fill="#000000" fill-opacity="0.0" d="m16.0 376.0l928.0 0l0 48.0l-928.0 0z" fill-rule="nonzero"></path><path fill="#6aa84f" d="m390.37704 412.20438q-2.328125 0 -4.25 -0.765625q-1.921875 -0.78125 -3.296875 -2.25q-1.375 -1.46875 -2.125 -3.625q-0.75 -2.15625 -0.75 -4.953125q0 -2.78125 0.84375 -4.9375q0.84375 -2.15625 2.28125 -3.625q1.453125 -1.484375 3.359375 -2.25q1.921875 -0.765625 4.109375 -0.765625q1.375 0 2.46875 0.203125q1.109375 0.1875 1.921875 0.4375q0.8125 0.25 1.328125 0.515625q0.515625 0.25 0.703125 0.375l-0.890625 2.5625q-0.28125 -0.1875 -0.828125 -0.40625q-0.546875 -0.234375 -1.234375 -0.453125q-0.6875 -0.234375 -1.515625 -0.375q-0.8125 -0.140625 -1.640625 -0.140625q-1.75 0 -3.171875 0.609375q-1.40625 0.609375 -2.40625 1.765625q-0.984375 1.140625 -1.515625 2.796875q-0.515625 1.640625 -0.515625 3.6875q0 1.984375 0.453125 3.625q0.46875 1.625 1.390625 2.796875q0.9375 1.171875 2.328125 1.8125q1.390625 0.640625 3.25 0.640625q2.140625 0 3.546875 -0.453125q1.40625 -0.453125 2.109375 -0.796875l0.8125 2.5625q-0.234375 0.15625 -0.8125 0.40625q-0.578125 0.234375 -1.4375 0.453125q-0.859375 0.21875 -2.015625 0.375q-1.15625 0.171875 -2.5 0.171875zm9.418182 -11.59375q0 -2.84375 0.84375 -5.015625q0.84375 -2.171875 2.296875 -3.625q1.46875 -1.46875 3.40625 -2.203125q1.9375 -0.734375 4.109375 -0.734375q2.140625 0 4.046875 0.734375q1.90625 0.734375 3.34375 2.203125q1.4375 1.453125 2.28125 3.625q0.859375 2.171875 0.859375 5.015625q0 2.859375 -0.859375 5.03125q-0.84375 2.171875 -2.28125 3.640625q-1.4375 1.453125 -3.34375 2.1875q-1.90625 0.734375 -4.046875 0.734375q-2.171875 0 -4.109375 -0.734375q-1.9375 -0.734375 -3.40625 -2.1875q-1.453125 -1.46875 -2.296875 -3.640625q-0.84375 -2.171875 -0.84375 -5.03125zm3.265625 0q0 2.015625 0.5 3.671875q0.515625 1.640625 1.453125 2.796875q0.953125 1.15625 2.3125 1.78125q1.359375 0.625 3.0625 0.625q1.6875 0 3.03125 -0.625q1.34375 -0.625 2.28125 -1.78125q0.953125 -1.15625 1.46875 -2.796875q0.515625 -1.65625 0.515625 -3.671875q0 -2.015625 -0.515625 -3.65625q-0.515625 -1.65625 -1.46875 -2.796875q-0.9375 -1.15625 -2.28125 -1.78125q-1.34375 -0.625 -3.03125 -0.625q-1.703125 0 -3.0625 0.625q-1.359375 0.625 -2.3125 1.78125q-0.9375 1.140625 -1.453125 2.796875q-0.5 1.640625 -0.5 3.65625zm36.052307 0.203125l3.109375 0l0 10.359375q-0.375 0.125 -1.109375 0.296875q-0.71875 0.15625 -1.65625 0.3125q-0.9375 0.15625 -2.0625 0.265625q-1.125 0.125 -2.28125 0.125q-2.328125 0 -4.25 -0.765625q-1.921875 -0.78125 -3.296875 -2.25q-1.375 -1.46875 -2.125 -3.609375q-0.75 -2.140625 -0.75 -4.9375q0 -2.78125 0.84375 -4.9375q0.84375 -2.15625 2.28125 -3.625q1.453125 -1.484375 3.375 -2.25q1.9375 -0.765625 4.15625 -0.765625q1.5 0 2.671875 0.203125q1.171875 0.1875 2.0 0.4375q0.828125 0.25 1.359375 0.515625q0.53125 0.25 0.71875 0.375l-1.0 2.59375q-0.921875 -0.609375 -2.46875 -1.0q-1.53125 -0.40625 -3.125 -0.40625q-1.703125 0 -3.09375 0.609375q-1.390625 0.609375 -2.375 1.765625q-0.96875 1.140625 -1.515625 2.796875q-0.53125 1.640625 -0.53125 3.6875q0 1.984375 0.453125 3.625q0.46875 1.625 1.40625 2.796875q0.953125 1.171875 2.34375 1.8125q1.390625 0.640625 3.28125 0.640625q1.34375 0 2.28125 -0.140625q0.953125 -0.15625 1.359375 -0.28125l0 -8.25zm26.208557 1.625q0.515625 0.640625 1.296875 1.6875q0.796875 1.03125 1.625 2.296875q0.828125 1.265625 1.640625 2.640625q0.8125 1.375 1.390625 2.65625l-3.390625 0q-0.640625 -1.21875 -1.390625 -2.46875q-0.75 -1.25 -1.515625 -2.375q-0.765625 -1.140625 -1.53125 -2.125q-0.75 -1.0 -1.34375 -1.734375q-0.421875 0.03125 -0.859375 0.03125q-0.421875 0 -0.875 0l-2.78125 0l0 8.671875l-3.109375 0l0 -21.859375q1.3125 -0.3125 2.921875 -0.421875q1.625 -0.125 2.96875 -0.125q4.671875 0 7.109375 1.765625q2.453125 1.765625 2.453125 5.25q0 2.203125 -1.171875 3.78125q-1.15625 1.5625 -3.4375 2.328125zm-4.703125 -10.40625q-1.984375 0 -3.03125 0.109375l0 8.34375l2.203125 0q1.59375 0 2.875 -0.15625q1.28125 -0.15625 2.15625 -0.609375q0.890625 -0.453125 1.359375 -1.265625q0.484375 -0.8125 0.484375 -2.15625q0 -1.25 -0.484375 -2.078125q-0.46875 -0.84375 -1.28125 -1.3125q-0.8125 -0.484375 -1.921875 -0.671875q-1.109375 -0.203125 -2.359375 -0.203125zm13.987396 19.6875l0 -22.171875l13.53125 0l0 2.65625l-10.421875 0l0 6.59375l9.28125 0l0 2.578125l-9.28125 0l0 7.6875l11.234375 0l0 2.65625l-14.34375 0zm23.428284 -2.203125q4.859375 0 4.859375 -3.328125q0 -1.03125 -0.4375 -1.75q-0.421875 -0.71875 -1.15625 -1.25q-0.734375 -0.53125 -1.6875 -0.90625q-0.9375 -0.390625 -2.0 -0.765625q-1.21875 -0.421875 -2.3125 -0.953125q-1.078125 -0.53125 -1.875 -1.25q-0.796875 -0.71875 -1.265625 -1.703125q-0.46875 -1.0 -0.46875 -2.40625q0 -2.90625 1.984375 -4.53125q1.984375 -1.640625 5.484375 -1.640625q2.015625 0 3.65625 0.4375q1.65625 0.421875 2.421875 0.9375l-1.0 2.53125q-0.671875 -0.421875 -2.0 -0.8125q-1.328125 -0.40625 -3.078125 -0.40625q-0.90625 0 -1.671875 0.203125q-0.765625 0.1875 -1.34375 0.578125q-0.578125 0.375 -0.921875 0.96875q-0.328125 0.59375 -0.328125 1.390625q0 0.890625 0.34375 1.5q0.359375 0.609375 1.0 1.078125q0.640625 0.453125 1.484375 0.84375q0.859375 0.375 1.875 0.765625q1.4375 0.578125 2.640625 1.15625q1.203125 0.578125 2.078125 1.375q0.890625 0.796875 1.359375 1.90625q0.484375 1.09375 0.484375 2.671875q0 2.90625 -2.125 4.484375q-2.125 1.5625 -6.0 1.5625q-1.3125 0 -2.421875 -0.1875q-1.09375 -0.171875 -1.96875 -0.40625q-0.859375 -0.25 -1.484375 -0.515625q-0.625 -0.265625 -0.96875 -0.46875l0.921875 -2.546875q0.734375 0.40625 2.234375 0.921875q1.515625 0.515625 3.6875 0.515625zm26.680267 -19.96875l0 2.6875l-6.96875 0l0 19.484375l-3.109375 0l0 -19.484375l-6.96875 0l0 -2.6875l17.046875 0zm25.472046 22.171875q-0.53125 -1.4375 -1.015625 -2.828125q-0.484375 -1.390625 -1.0 -2.828125l-10.046875 0l-2.015625 5.65625l-3.234375 0q1.28125 -3.515625 2.40625 -6.5q1.125 -3.0 2.1875 -5.6875q1.078125 -2.6875 2.125 -5.140625q1.0625 -2.453125 2.21875 -4.84375l2.84375 0q1.15625 2.390625 2.203125 4.84375q1.0625 2.453125 2.125 5.140625q1.078125 2.6875 2.203125 5.6875q1.125 2.984375 2.390625 6.5l-3.390625 0zm-2.90625 -8.21875q-1.03125 -2.796875 -2.046875 -5.390625q-1.0 -2.609375 -2.078125 -5.015625q-1.125 2.40625 -2.140625 5.015625q-1.0 2.59375 -1.984375 5.390625l8.25 0zm15.200439 -14.1875q4.671875 0 7.1875 1.78125q2.515625 1.78125 2.515625 5.296875q0 1.921875 -0.703125 3.28125q-0.6875 1.359375 -1.984375 2.21875q-1.28125 0.84375 -3.140625 1.234375q-1.859375 0.375 -4.203125 0.375l-2.453125 0l0 8.21875l-3.109375 0l0 -21.859375q1.3125 -0.3125 2.921875 -0.421875q1.625 -0.125 2.96875 -0.125zm0.25 2.71875q-1.984375 0 -3.03125 0.109375l0 8.703125l2.328125 0q1.609375 0 2.890625 -0.203125q1.28125 -0.21875 2.15625 -0.703125q0.875 -0.5 1.359375 -1.359375q0.484375 -0.875 0.484375 -2.21875q0 -1.28125 -0.5 -2.109375q-0.5 -0.828125 -1.34375 -1.328125q-0.84375 -0.5 -1.96875 -0.6875q-1.125 -0.203125 -2.375 -0.203125zm13.31543 -2.484375l3.109375 0l0 22.171875l-3.109375 0l0 -22.171875z" fill-rule="nonzero"></path><path fill="#ffffff" d="m8.0 232.0l944.0 0l0 96.0l-944.0 0z" fill-rule="nonzero"></path><path stroke="#e69138" stroke-width="3.0" stroke-linejoin="round" stroke-linecap="butt" d="m8.0 232.0l944.0 0l0 96.0l-944.0 0z" fill-rule="nonzero"></path><path fill="#000000" fill-opacity="0.0" d="m424.0 240.0l112.0 0l0 80.0l-112.0 0z" fill-rule="nonzero"></path><path fill="#e69138" d="m459.1612 273.20438q-2.328125 0 -4.25 -0.765625q-1.921875 -0.78125 -3.296875 -2.25q-1.375 -1.46875 -2.125 -3.625q-0.75 -2.15625 -0.75 -4.953125q0 -2.78125 0.84375 -4.9375q0.84375 -2.15625 2.28125 -3.625q1.453125 -1.484375 3.359375 -2.25q1.921875 -0.765625 4.109375 -0.765625q1.375 0 2.46875 0.203125q1.109375 0.1875 1.921875 0.4375q0.8125 0.25 1.328125 0.515625q0.515625 0.25 0.703125 0.375l-0.890625 2.5625q-0.28125 -0.1875 -0.828125 -0.40625q-0.546875 -0.234375 -1.234375 -0.453125q-0.6875 -0.234375 -1.515625 -0.375q-0.8125 -0.140625 -1.640625 -0.140625q-1.75 0 -3.171875 0.609375q-1.40625 0.609375 -2.40625 1.765625q-0.984375 1.140625 -1.515625 2.796875q-0.515625 1.640625 -0.515625 3.6875q0 1.984375 0.453125 3.625q0.46875 1.625 1.390625 2.796875q0.9375 1.171875 2.328125 1.8125q1.390625 0.640625 3.25 0.640625q2.140625 0 3.546875 -0.453125q1.40625 -0.453125 2.109375 -0.796875l0.8125 2.5625q-0.234375 0.15625 -0.8125 0.40625q-0.578125 0.234375 -1.4375 0.453125q-0.859375 0.21875 -2.015625 0.375q-1.15625 0.171875 -2.5 0.171875zm9.418152 -11.59375q0 -2.84375 0.84375 -5.015625q0.84375 -2.171875 2.296875 -3.625q1.46875 -1.46875 3.40625 -2.203125q1.9375 -0.734375 4.109375 -0.734375q2.140625 0 4.046875 0.734375q1.90625 0.734375 3.34375 2.203125q1.4375 1.453125 2.28125 3.625q0.859375 2.171875 0.859375 5.015625q0 2.859375 -0.859375 5.03125q-0.84375 2.171875 -2.28125 3.640625q-1.4375 1.453125 -3.34375 2.1875q-1.90625 0.734375 -4.046875 0.734375q-2.171875 0 -4.109375 -0.734375q-1.9375 -0.734375 -3.40625 -2.1875q-1.453125 -1.46875 -2.296875 -3.640625q-0.84375 -2.171875 -0.84375 -5.03125zm3.265625 0q0 2.015625 0.5 3.671875q0.515625 1.640625 1.453125 2.796875q0.953125 1.15625 2.3125 1.78125q1.359375 0.625 3.0625 0.625q1.6875 0 3.03125 -0.625q1.34375 -0.625 2.28125 -1.78125q0.953125 -1.15625 1.46875 -2.796875q0.515625 -1.65625 0.515625 -3.671875q0 -2.015625 -0.515625 -3.65625q-0.515625 -1.65625 -1.46875 -2.796875q-0.9375 -1.15625 -2.28125 -1.78125q-1.34375 -0.625 -3.03125 -0.625q-1.703125 0 -3.0625 0.625q-1.359375 0.625 -2.3125 1.78125q-0.9375 1.140625 -1.453125 2.796875q-0.5 1.640625 -0.5 3.65625zm36.052307 0.203125l3.109375 0l0 10.359375q-0.375 0.125 -1.109375 0.296875q-0.71875 0.15625 -1.65625 0.3125q-0.9375 0.15625 -2.0625 0.265625q-1.125 0.125 -2.28125 0.125q-2.328125 0 -4.25 -0.765625q-1.921875 -0.78125 -3.296875 -2.25q-1.375 -1.46875 -2.125 -3.609375q-0.75 -2.140625 -0.75 -4.9375q0 -2.78125 0.84375 -4.9375q0.84375 -2.15625 2.28125 -3.625q1.453125 -1.484375 3.375 -2.25q1.9375 -0.765625 4.15625 -0.765625q1.5 0 2.671875 0.203125q1.171875 0.1875 2.0 0.4375q0.828125 0.25 1.359375 0.515625q0.53125 0.25 0.71875 0.375l-1.0 2.59375q-0.921875 -0.609375 -2.46875 -1.0q-1.53125 -0.40625 -3.125 -0.40625q-1.703125 0 -3.09375 0.609375q-1.390625 0.609375 -2.375 1.765625q-0.96875 1.140625 -1.515625 2.796875q-0.53125 1.640625 -0.53125 3.6875q0 1.984375 0.453125 3.625q0.46875 1.625 1.40625 2.796875q0.953125 1.171875 2.34375 1.8125q1.390625 0.640625 3.28125 0.640625q1.34375 0 2.28125 -0.140625q0.953125 -0.15625 1.359375 -0.28125l0 -8.25z" fill-rule="nonzero"></path><path fill="#e69138" d="m457.80118 311.20438q-2.328125 0 -4.25 -0.765625q-1.921875 -0.78125 -3.296875 -2.25q-1.375 -1.46875 -2.125 -3.625q-0.75 -2.15625 -0.75 -4.953125q0 -2.78125 0.84375 -4.9375q0.84375 -2.15625 2.28125 -3.625q1.453125 -1.484375 3.359375 -2.25q1.921875 -0.765625 4.109375 -0.765625q1.375 0 2.46875 0.203125q1.109375 0.1875 1.921875 0.4375q0.8125 0.25 1.328125 0.515625q0.515625 0.25 0.703125 0.375l-0.890625 2.5625q-0.28125 -0.1875 -0.828125 -0.40625q-0.546875 -0.234375 -1.234375 -0.453125q-0.6875 -0.234375 -1.515625 -0.375q-0.8125 -0.140625 -1.640625 -0.140625q-1.75 0 -3.171875 0.609375q-1.40625 0.609375 -2.40625 1.765625q-0.984375 1.140625 -1.515625 2.796875q-0.515625 1.640625 -0.515625 3.6875q0 1.984375 0.453125 3.625q0.46875 1.625 1.390625 2.796875q0.9375 1.171875 2.328125 1.8125q1.390625 0.640625 3.25 0.640625q2.140625 0 3.546875 -0.453125q1.40625 -0.453125 2.109375 -0.796875l0.8125 2.5625q-0.234375 0.15625 -0.8125 0.40625q-0.578125 0.234375 -1.4375 0.453125q-0.859375 0.21875 -2.015625 0.375q-1.15625 0.171875 -2.5 0.171875zm24.808807 -8.796875q0 1.96875 -0.578125 3.578125q-0.578125 1.59375 -1.625 2.75q-1.03125 1.15625 -2.46875 1.78125q-1.4375 0.625 -3.140625 0.625q-1.6875 0 -3.140625 -0.625q-1.4375 -0.625 -2.484375 -1.78125q-1.03125 -1.15625 -1.609375 -2.75q-0.578125 -1.609375 -0.578125 -3.578125q0 -1.953125 0.578125 -3.5625q0.578125 -1.625 1.609375 -2.78125q1.046875 -1.15625 2.484375 -1.78125q1.453125 -0.625 3.140625 -0.625q1.703125 0 3.140625 0.625q1.4375 0.625 2.46875 1.78125q1.046875 1.15625 1.625 2.78125q0.578125 1.609375 0.578125 3.5625zm-3.109375 0q0 -2.828125 -1.265625 -4.46875q-1.265625 -1.65625 -3.4375 -1.65625q-2.171875 0 -3.4375 1.65625q-1.265625 1.640625 -1.265625 4.46875q0 2.8125 1.265625 4.46875q1.265625 1.640625 3.4375 1.640625q2.171875 0 3.4375 -1.640625q1.265625 -1.65625 1.265625 -4.46875zm13.442535 -8.671875q0.390625 0 0.875 0.046875q0.5 0.046875 0.984375 0.125q0.484375 0.078125 0.875 0.15625q0.40625 0.078125 0.59375 0.140625l-0.515625 2.59375q-0.34375 -0.125 -1.171875 -0.296875q-0.8125 -0.1875 -2.09375 -0.1875q-0.828125 0 -1.640625 0.1875q-0.8125 0.171875 -1.078125 0.234375l0 13.984375l-2.96875 0l0 -15.9375q1.046875 -0.375 2.609375 -0.703125q1.578125 -0.34375 3.53125 -0.34375zm5.2738953 8.703125q0 -2.21875 0.640625 -3.859375q0.640625 -1.65625 1.703125 -2.734375q1.0625 -1.09375 2.4375 -1.640625q1.375 -0.546875 2.8125 -0.546875q3.359375 0 5.140625 2.109375q1.796875 2.09375 1.796875 6.375q0 0.1875 0 0.5q0 0.296875 -0.03125 0.5625l-11.390625 0q0.1875 2.59375 1.5 3.9375q1.3125 1.34375 4.109375 1.34375q1.5625 0 2.625 -0.265625q1.078125 -0.28125 1.625 -0.546875l0.421875 2.5q-0.546875 0.296875 -1.90625 0.609375q-1.359375 0.328125 -3.09375 0.328125q-2.171875 0 -3.765625 -0.65625q-1.578125 -0.65625 -2.609375 -1.8125q-1.015625 -1.15625 -1.515625 -2.734375q-0.5 -1.59375 -0.5 -3.46875zm11.4375 -1.640625q0.03125 -2.015625 -1.015625 -3.3125q-1.03125 -1.296875 -2.859375 -1.296875q-1.03125 0 -1.8125 0.40625q-0.78125 0.390625 -1.328125 1.03125q-0.546875 0.640625 -0.859375 1.484375q-0.296875 0.828125 -0.390625 1.6875l8.265625 0z" fill-rule="nonzero"></path><path fill="#ffffff" d="m8.0 128.0l584.0 0l0 64.0l-584.0 0z" fill-rule="nonzero"></path><path stroke="#674ea7" stroke-width="3.0" stroke-linejoin="round" stroke-linecap="butt" d="m8.0 128.0l584.0 0l0 64.0l-584.0 0z" fill-rule="nonzero"></path><path fill="#000000" fill-opacity="0.0" d="m16.0 136.0l568.0 0l0 48.0l-568.0 0z" fill-rule="nonzero"></path><path fill="#674ea7" d="m243.20897 160.61063q0 2.890625 -0.890625 5.015625q-0.890625 2.125 -2.53125 3.515625q-1.625 1.390625 -3.90625 2.078125q-2.265625 0.6875 -4.984375 0.6875q-1.34375 0 -2.96875 -0.109375q-1.609375 -0.109375 -2.921875 -0.4375l0 -21.5q1.3125 -0.3125 2.921875 -0.421875q1.625 -0.125 2.96875 -0.125q2.71875 0 4.984375 0.6875q2.28125 0.6875 3.90625 2.09375q1.640625 1.390625 2.53125 3.515625q0.890625 2.125 0.890625 5.0zm-12.0625 8.578125q4.421875 0 6.59375 -2.25q2.171875 -2.265625 2.171875 -6.328125q0 -4.0625 -2.171875 -6.3125q-2.171875 -2.265625 -6.59375 -2.265625q-1.3125 0 -2.03125 0.046875q-0.71875 0.03125 -1.0 0.0625l0 16.953125q0.28125 0.03125 1.0 0.0625q0.71875 0.03125 2.03125 0.03125zm22.112915 0.390625q1.0625 0 1.875 -0.046875q0.8125 -0.046875 1.3593903 -0.1875l0 -4.953125q-0.3125 -0.15625 -1.0468903 -0.265625q-0.71875 -0.125 -1.734375 -0.125q-0.671875 0 -1.421875 0.109375q-0.75 0.09375 -1.375 0.40625q-0.625 0.296875 -1.046875 0.828125q-0.40625 0.515625 -0.40625 1.390625q0 1.59375 1.015625 2.21875q1.03125 0.625 2.78125 0.625zm-0.25 -14.921875q1.796875 0 3.0156403 0.46875q1.234375 0.46875 1.984375 1.3125q0.765625 0.84375 1.078125 2.015625q0.328125 1.171875 0.328125 2.578125l0 10.40625q-0.390625 0.0625 -1.078125 0.171875q-0.6875 0.109375 -1.5625 0.203125q-0.85939026 0.09375 -1.8750153 0.171875q-1.0 0.09375 -1.984375 0.09375q-1.40625 0 -2.59375 -0.296875q-1.1875 -0.28125 -2.046875 -0.90625q-0.859375 -0.625 -1.34375 -1.640625q-0.484375 -1.03125 -0.484375 -2.46875q0 -1.390625 0.5625 -2.375q0.5625 -0.984375 1.515625 -1.59375q0.96875 -0.609375 2.234375 -0.890625q1.28125 -0.296875 2.703125 -0.296875q0.4375 0 0.921875 0.046875q0.484375 0.046875 0.90625 0.125q0.4375 0.078125 0.75001526 0.140625q0.328125 0.0625 0.453125 0.09375l0 -0.828125q0 -0.734375 -0.15625 -1.453125q-0.15625 -0.71875 -0.57814026 -1.28125q-0.421875 -0.5625 -1.140625 -0.890625q-0.71875 -0.34375 -1.859375 -0.34375q-1.484375 0 -2.59375 0.21875q-1.09375 0.203125 -1.640625 0.421875l-0.34375 -2.453125q0.578125 -0.265625 1.921875 -0.5q1.34375 -0.25 2.90625 -0.25zm14.110306 0.421875l6.296875 0l0 2.5l-6.296875 0l0 7.671875q0 1.25 0.1875 2.078125q0.203125 0.8125 0.578125 1.28125q0.390625 0.453125 0.953125 0.65625q0.578125 0.1875 1.359375 0.1875q1.34375 0 2.15625 -0.296875q0.8125 -0.3125 1.140625 -0.453125l0.5625 2.46875q-0.4375 0.234375 -1.5625 0.5625q-1.125 0.34375 -2.5625 0.34375q-1.6875 0 -2.796875 -0.4375q-1.109375 -0.4375 -1.78125 -1.296875q-0.671875 -0.859375 -0.9375 -2.125q-0.265625 -1.265625 -0.265625 -2.9375l0 -14.84375l2.96875 -0.515625l0 5.15625zm15.707764 14.5q1.0625 0 1.875 -0.046875q0.8125 -0.046875 1.359375 -0.1875l0 -4.953125q-0.3125 -0.15625 -1.046875 -0.265625q-0.71875 -0.125 -1.734375 -0.125q-0.671875 0 -1.421875 0.109375q-0.75 0.09375 -1.375 0.40625q-0.625 0.296875 -1.046875 0.828125q-0.40625 0.515625 -0.40625 1.390625q0 1.59375 1.015625 2.21875q1.03125 0.625 2.78125 0.625zm-0.25 -14.921875q1.796875 0 3.015625 0.46875q1.234375 0.46875 1.984375 1.3125q0.765625 0.84375 1.078125 2.015625q0.328125 1.171875 0.328125 2.578125l0 10.40625q-0.390625 0.0625 -1.078125 0.171875q-0.6875 0.109375 -1.5625 0.203125q-0.859375 0.09375 -1.875 0.171875q-1.0 0.09375 -1.984375 0.09375q-1.40625 0 -2.59375 -0.296875q-1.1875 -0.28125 -2.046875 -0.90625q-0.859375 -0.625 -1.34375 -1.640625q-0.484375 -1.03125 -0.484375 -2.46875q0 -1.390625 0.5625 -2.375q0.5625 -0.984375 1.515625 -1.59375q0.96875 -0.609375 2.234375 -0.890625q1.28125 -0.296875 2.703125 -0.296875q0.4375 0 0.921875 0.046875q0.484375 0.046875 0.90625 0.125q0.4375 0.078125 0.75 0.140625q0.328125 0.0625 0.453125 0.09375l0 -0.828125q0 -0.734375 -0.15625 -1.453125q-0.15625 -0.71875 -0.578125 -1.28125q-0.421875 -0.5625 -1.140625 -0.890625q-0.71875 -0.34375 -1.859375 -0.34375q-1.484375 0 -2.59375 0.21875q-1.09375 0.203125 -1.640625 0.421875l-0.34375 -2.453125q0.578125 -0.265625 1.921875 -0.5q1.34375 -0.25 2.90625 -0.25zm24.06482 14.859375q4.859375 0 4.859375 -3.328125q0 -1.03125 -0.4375 -1.75q-0.421875 -0.71875 -1.15625 -1.25q-0.734375 -0.53125 -1.6875 -0.90625q-0.9375 -0.390625 -2.0 -0.765625q-1.21875 -0.421875 -2.3125 -0.953125q-1.078125 -0.53125 -1.875 -1.25q-0.796875 -0.71875 -1.265625 -1.703125q-0.46875 -1.0 -0.46875 -2.40625q0 -2.90625 1.984375 -4.53125q1.984375 -1.640625 5.484375 -1.640625q2.015625 0 3.65625 0.4375q1.65625 0.421875 2.421875 0.9375l-1.0 2.53125q-0.671875 -0.421875 -2.0 -0.8125q-1.328125 -0.40625 -3.078125 -0.40625q-0.90625 0 -1.671875 0.203125q-0.765625 0.1875 -1.34375 0.578125q-0.578125 0.375 -0.921875 0.96875q-0.328125 0.59375 -0.328125 1.390625q0 0.890625 0.34375 1.5q0.359375 0.609375 1.0 1.078125q0.640625 0.453125 1.484375 0.84375q0.859375 0.375 1.875 0.765625q1.4375 0.578125 2.640625 1.15625q1.203125 0.578125 2.078125 1.375q0.890625 0.796875 1.359375 1.90625q0.484375 1.09375 0.484375 2.671875q0 2.90625 -2.125 4.484375q-2.125 1.5625 -6.0 1.5625q-1.3125 0 -2.421875 -0.1875q-1.09375 -0.171875 -1.96875 -0.40625q-0.859375 -0.25 -1.484375 -0.515625q-0.625 -0.265625 -0.96875 -0.46875l0.921875 -2.546875q0.734375 0.40625 2.234375 0.921875q1.515625 0.515625 3.6875 0.515625zm14.461517 -14.4375l6.296875 0l0 2.5l-6.296875 0l0 7.671875q0 1.25 0.1875 2.078125q0.203125 0.8125 0.578125 1.28125q0.390625 0.453125 0.953125 0.65625q0.578125 0.1875 1.359375 0.1875q1.34375 0 2.15625 -0.296875q0.8125 -0.3125 1.140625 -0.453125l0.5625 2.46875q-0.4375 0.234375 -1.5625 0.5625q-1.125 0.34375 -2.5625 0.34375q-1.6875 0 -2.796875 -0.4375q-1.109375 -0.4375 -1.78125 -1.296875q-0.671875 -0.859375 -0.9375 -2.125q-0.265625 -1.265625 -0.265625 -2.9375l0 -14.84375l2.96875 -0.515625l0 5.15625zm24.770294 8.328125q0 1.96875 -0.578125 3.578125q-0.578125 1.59375 -1.625 2.75q-1.03125 1.15625 -2.46875 1.78125q-1.4375 0.625 -3.140625 0.625q-1.6875 0 -3.140625 -0.625q-1.4375 -0.625 -2.484375 -1.78125q-1.03125 -1.15625 -1.609375 -2.75q-0.578125 -1.609375 -0.578125 -3.578125q0 -1.953125 0.578125 -3.5625q0.578125 -1.625 1.609375 -2.78125q1.046875 -1.15625 2.484375 -1.78125q1.453125 -0.625 3.140625 -0.625q1.703125 0 3.140625 0.625q1.4375 0.625 2.46875 1.78125q1.046875 1.15625 1.625 2.78125q0.578125 1.609375 0.578125 3.5625zm-3.109375 0q0 -2.828125 -1.265625 -4.46875q-1.265625 -1.65625 -3.4375 -1.65625q-2.171875 0 -3.4375 1.65625q-1.265625 1.640625 -1.265625 4.46875q0 2.8125 1.265625 4.46875q1.265625 1.640625 3.4375 1.640625q2.171875 0 3.4375 -1.640625q1.265625 -1.65625 1.265625 -4.46875zm13.442505 -8.671875q0.390625 0 0.875 0.046875q0.5 0.046875 0.984375 0.125q0.484375 0.078125 0.875 0.15625q0.40625 0.078125 0.59375 0.140625l-0.515625 2.59375q-0.34375 -0.125 -1.171875 -0.296875q-0.8125 -0.1875 -2.09375 -0.1875q-0.828125 0 -1.640625 0.1875q-0.8125 0.171875 -1.078125 0.234375l0 13.984375l-2.96875 0l0 -15.9375q1.046875 -0.375 2.609375 -0.703125q1.578125 -0.34375 3.53125 -0.34375zm5.273926 8.703125q0 -2.21875 0.640625 -3.859375q0.640625 -1.65625 1.703125 -2.734375q1.0625 -1.09375 2.4375 -1.640625q1.375 -0.546875 2.8125 -0.546875q3.359375 0 5.140625 2.109375q1.796875 2.09375 1.796875 6.375q0 0.1875 0 0.5q0 0.296875 -0.03125 0.5625l-11.390625 0q0.1875 2.59375 1.5 3.9375q1.3125 1.34375 4.109375 1.34375q1.5625 0 2.625 -0.265625q1.078125 -0.28125 1.625 -0.546875l0.421875 2.5q-0.546875 0.296875 -1.90625 0.609375q-1.359375 0.328125 -3.09375 0.328125q-2.171875 0 -3.765625 -0.65625q-1.578125 -0.65625 -2.609375 -1.8125q-1.015625 -1.15625 -1.515625 -2.734375q-0.5 -1.59375 -0.5 -3.46875zm11.4375 -1.640625q0.03125 -2.015625 -1.015625 -3.3125q-1.03125 -1.296875 -2.859375 -1.296875q-1.03125 0 -1.8125 0.40625q-0.78125 0.390625 -1.328125 1.03125q-0.546875 0.640625 -0.859375 1.484375q-0.296875 0.828125 -0.390625 1.6875l8.265625 0z" fill-rule="nonzero"></path><path fill="#ffffff" d="m608.0 128.0l344.0 0l0 64.0l-344.0 0z" fill-rule="nonzero"></path><path stroke="#a64d79" stroke-width="3.0" stroke-linejoin="round" stroke-linecap="butt" d="m608.0 128.0l344.0 0l0 64.0l-344.0 0z" fill-rule="nonzero"></path><path fill="#000000" fill-opacity="0.0" d="m616.0 136.0l328.0 0l0 48.0l-328.0 0z" fill-rule="nonzero"></path><path fill="#a64d79" d="m713.59784 171.72l0 -22.171875l13.375 0l0 2.65625l-10.265625 0l0 6.6875l9.109375 0l0 2.625l-9.109375 0l0 10.203125l-3.109375 0zm19.965332 0l-2.96875 0l0 -16.640625l2.96875 0l0 16.640625zm-1.5 -19.640625q-0.796875 0 -1.359375 -0.53125q-0.5625 -0.53125 -0.5625 -1.421875q0 -0.90625 0.5625 -1.421875q0.5625 -0.53125 1.359375 -0.53125q0.796875 0 1.359375 0.53125q0.5625 0.515625 0.5625 1.421875q0 0.890625 -0.5625 1.421875q-0.5625 0.53125 -1.359375 0.53125zm11.611633 19.953125q-2.75 -0.0625 -3.90625 -1.171875q-1.140625 -1.125 -1.140625 -3.5l0 -19.953125l2.96875 -0.515625l0 20.0q0 0.734375 0.125 1.21875q0.140625 0.46875 0.421875 0.765625q0.28125 0.28125 0.765625 0.4375q0.484375 0.140625 1.1875 0.234375l-0.421875 2.484375zm2.814148 -8.59375q0 -2.21875 0.640625 -3.859375q0.640625 -1.65625 1.703125 -2.734375q1.0625 -1.09375 2.4375 -1.640625q1.375 -0.546875 2.8125 -0.546875q3.359375 0 5.140625 2.109375q1.796875 2.09375 1.796875 6.375q0 0.1875 0 0.5q0 0.296875 -0.03125 0.5625l-11.390625 0q0.1875 2.59375 1.5 3.9375q1.3125 1.34375 4.109375 1.34375q1.5625 0 2.625 -0.265625q1.078125 -0.28125 1.625 -0.546875l0.421875 2.5q-0.546875 0.296875 -1.90625 0.609375q-1.359375 0.328125 -3.09375 0.328125q-2.171875 0 -3.765625 -0.65625q-1.578125 -0.65625 -2.609375 -1.8125q-1.015625 -1.15625 -1.515625 -2.734375q-0.5 -1.59375 -0.5 -3.46875zm11.4375 -1.640625q0.03125 -2.015625 -1.015625 -3.3125q-1.03125 -1.296875 -2.859375 -1.296875q-1.03125 0 -1.8125 0.40625q-0.78125 0.390625 -1.328125 1.03125q-0.546875 0.640625 -0.859375 1.484375q-0.296875 0.828125 -0.390625 1.6875l8.265625 0zm20.12378 7.71875q4.859375 0 4.859375 -3.328125q0 -1.03125 -0.4375 -1.75q-0.421875 -0.71875 -1.15625 -1.25q-0.734375 -0.53125 -1.6875 -0.90625q-0.9375 -0.390625 -2.0 -0.765625q-1.21875 -0.421875 -2.3125 -0.953125q-1.078125 -0.53125 -1.875 -1.25q-0.796875 -0.71875 -1.265625 -1.703125q-0.46875 -1.0 -0.46875 -2.40625q0 -2.90625 1.984375 -4.53125q1.984375 -1.640625 5.484375 -1.640625q2.015625 0 3.65625 0.4375q1.65625 0.421875 2.421875 0.9375l-1.0 2.53125q-0.671875 -0.421875 -2.0 -0.8125q-1.328125 -0.40625 -3.078125 -0.40625q-0.90625 0 -1.671875 0.203125q-0.765625 0.1875 -1.34375 0.578125q-0.578125 0.375 -0.921875 0.96875q-0.328125 0.59375 -0.328125 1.390625q0 0.890625 0.34375 1.5q0.359375 0.609375 1.0 1.078125q0.640625 0.453125 1.484375 0.84375q0.859375 0.375 1.875 0.765625q1.4375 0.578125 2.640625 1.15625q1.203125 0.578125 2.078125 1.375q0.890625 0.796875 1.359375 1.90625q0.484375 1.09375 0.484375 2.671875q0 2.90625 -2.125 4.484375q-2.125 1.5625 -6.0 1.5625q-1.3125 0 -2.421875 -0.1875q-1.09375 -0.171875 -1.96875 -0.40625q-0.859375 -0.25 -1.484375 -0.515625q-0.625 -0.265625 -0.96875 -0.46875l0.921875 -2.546875q0.734375 0.40625 2.234375 0.921875q1.515625 0.515625 3.6875 0.515625zm14.461548 -14.4375l6.296875 0l0 2.5l-6.296875 0l0 7.671875q0 1.25 0.1875 2.078125q0.203125 0.8125 0.578125 1.28125q0.390625 0.453125 0.953125 0.65625q0.578125 0.1875 1.359375 0.1875q1.34375 0 2.15625 -0.296875q0.8125 -0.3125 1.140625 -0.453125l0.5625 2.46875q-0.4375 0.234375 -1.5625 0.5625q-1.125 0.34375 -2.5625 0.34375q-1.6875 0 -2.796875 -0.4375q-1.109375 -0.4375 -1.78125 -1.296875q-0.671875 -0.859375 -0.9375 -2.125q-0.265625 -1.265625 -0.265625 -2.9375l0 -14.84375l2.96875 -0.515625l0 5.15625zm24.770264 8.328125q0 1.96875 -0.578125 3.578125q-0.578125 1.59375 -1.625 2.75q-1.03125 1.15625 -2.46875 1.78125q-1.4375 0.625 -3.140625 0.625q-1.6875 0 -3.140625 -0.625q-1.4375 -0.625 -2.484375 -1.78125q-1.03125 -1.15625 -1.609375 -2.75q-0.578125 -1.609375 -0.578125 -3.578125q0 -1.953125 0.578125 -3.5625q0.578125 -1.625 1.609375 -2.78125q1.046875 -1.15625 2.484375 -1.78125q1.453125 -0.625 3.140625 -0.625q1.703125 0 3.140625 0.625q1.4375 0.625 2.46875 1.78125q1.046875 1.15625 1.625 2.78125q0.578125 1.609375 0.578125 3.5625zm-3.109375 0q0 -2.828125 -1.265625 -4.46875q-1.265625 -1.65625 -3.4375 -1.65625q-2.171875 0 -3.4375 1.65625q-1.265625 1.640625 -1.265625 4.46875q0 2.8125 1.265625 4.46875q1.265625 1.640625 3.4375 1.640625q2.171875 0 3.4375 -1.640625q1.265625 -1.65625 1.265625 -4.46875zm13.442566 -8.671875q0.390625 0 0.875 0.046875q0.5 0.046875 0.984375 0.125q0.484375 0.078125 0.875 0.15625q0.40625 0.078125 0.59375 0.140625l-0.515625 2.59375q-0.34375 -0.125 -1.171875 -0.296875q-0.8125 -0.1875 -2.09375 -0.1875q-0.828125 0 -1.640625 0.1875q-0.8125 0.171875 -1.078125 0.234375l0 13.984375l-2.96875 0l0 -15.9375q1.046875 -0.375 2.609375 -0.703125q1.578125 -0.34375 3.53125 -0.34375zm5.2738647 8.703125q0 -2.21875 0.640625 -3.859375q0.640625 -1.65625 1.703125 -2.734375q1.0625 -1.09375 2.4375 -1.640625q1.375 -0.546875 2.8125 -0.546875q3.359375 0 5.140625 2.109375q1.796875 2.09375 1.796875 6.375q0 0.1875 0 0.5q0 0.296875 -0.03125 0.5625l-11.390625 0q0.1875 2.59375 1.5 3.9375q1.3125 1.34375 4.109375 1.34375q1.5625 0 2.625 -0.265625q1.078125 -0.28125 1.625 -0.546875l0.421875 2.5q-0.546875 0.296875 -1.90625 0.609375q-1.359375 0.328125 -3.09375 0.328125q-2.171875 0 -3.765625 -0.65625q-1.578125 -0.65625 -2.609375 -1.8125q-1.015625 -1.15625 -1.515625 -2.734375q-0.5 -1.59375 -0.5 -3.46875zm11.4375 -1.640625q0.03125 -2.015625 -1.015625 -3.3125q-1.03125 -1.296875 -2.859375 -1.296875q-1.03125 0 -1.8125 0.40625q-0.78125 0.390625 -1.328125 1.03125q-0.546875 0.640625 -0.859375 1.484375q-0.296875 0.828125 -0.390625 1.6875l8.265625 0z" fill-rule="nonzero"></path><path fill="#000000" fill-opacity="0.0" d="m16.0 240.0l400.0 0l0 80.0l-400.0 0z" fill-rule="nonzero"></path><path stroke="#e69138" stroke-width="1.0" stroke-linejoin="round" stroke-linecap="butt" stroke-dasharray="4.0,3.0" d="m16.0 240.0l400.0 0l0 80.0l-400.0 0z" fill-rule="nonzero"></path><path fill="#e69138" d="m174.02003 288.54q-0.40625 -1.078125 -0.765625 -2.125q-0.359375 -1.046875 -0.75 -2.125l-7.53125 0l-1.515625 4.25l-2.421875 0q0.96875 -2.640625 1.796875 -4.875q0.84375 -2.25 1.640625 -4.265625q0.8125 -2.015625 1.609375 -3.84375q0.796875 -1.84375 1.65625 -3.640625l2.140625 0q0.859375 1.796875 1.640625 3.640625q0.796875 1.828125 1.59375 3.84375q0.8125 2.015625 1.65625 4.265625q0.84375 2.234375 1.796875 4.875l-2.546875 0zm-2.1875 -6.171875q-0.765625 -2.078125 -1.515625 -4.03125q-0.75 -1.96875 -1.578125 -3.765625q-0.828125 1.796875 -1.59375 3.765625q-0.75 1.953125 -1.5 4.03125l6.1875 0zm16.786957 5.8125q-0.765625 0.1875 -2.03125 0.40625q-1.265625 0.21875 -2.921875 0.21875q-1.4375 0 -2.421875 -0.421875q-0.984375 -0.421875 -1.59375 -1.1875q-0.59375 -0.765625 -0.859375 -1.8125q-0.25 -1.046875 -0.25 -2.3125l0 -7.015625l2.234375 0l0 6.53125q0 2.28125 0.71875 3.265625q0.71875 0.984375 2.421875 0.984375q0.359375 0 0.734375 -0.015625q0.390625 -0.03125 0.71875 -0.0625q0.34375 -0.046875 0.609375 -0.078125q0.28125 -0.03125 0.40625 -0.078125l0 -10.546875l2.234375 0l0 12.125zm5.932205 -12.125l4.71875 0l0 1.875l-4.71875 0l0 5.765625q0 0.9375 0.140625 1.546875q0.140625 0.609375 0.421875 0.96875q0.296875 0.34375 0.71875 0.484375q0.4375 0.140625 1.015625 0.140625q1.0 0 1.609375 -0.21875q0.625 -0.234375 0.859375 -0.328125l0.4375 1.84375q-0.34375 0.171875 -1.1875 0.421875q-0.828125 0.25 -1.90625 0.25q-1.28125 0 -2.109375 -0.328125q-0.828125 -0.328125 -1.328125 -0.96875q-0.5 -0.65625 -0.703125 -1.59375q-0.203125 -0.953125 -0.203125 -2.203125l0 -11.125l2.234375 -0.390625l0 3.859375zm7.5542145 12.484375l0 -18.234375l2.234375 -0.390625l0 6.390625q0.625 -0.25 1.328125 -0.375q0.703125 -0.140625 1.40625 -0.140625q1.484375 0 2.46875 0.421875q0.984375 0.421875 1.5625 1.1875q0.59375 0.75 0.828125 1.8125q0.25 1.046875 0.25 2.3125l0 7.015625l-2.234375 0l0 -6.53125q0 -1.15625 -0.15625 -1.96875q-0.15625 -0.8125 -0.515625 -1.3125q-0.359375 -0.5 -0.96875 -0.734375q-0.59375 -0.234375 -1.484375 -0.234375q-0.359375 0 -0.75 0.046875q-0.375 0.046875 -0.71875 0.109375q-0.34375 0.0625 -0.625 0.140625q-0.28125 0.0625 -0.390625 0.109375l0 10.375l-2.234375 0zm26.54483 0.359375q-1.75 0 -3.203125 -0.578125q-1.4375 -0.578125 -2.46875 -1.671875q-1.03125 -1.109375 -1.59375 -2.71875q-0.5625 -1.625 -0.5625 -3.71875q0 -2.09375 0.625 -3.703125q0.640625 -1.625 1.71875 -2.71875q1.09375 -1.109375 2.53125 -1.6875q1.4375 -0.578125 3.078125 -0.578125q1.03125 0 1.859375 0.140625q0.828125 0.140625 1.4375 0.34375q0.609375 0.1875 0.984375 0.390625q0.390625 0.1875 0.53125 0.28125l-0.671875 1.921875q-0.21875 -0.15625 -0.625 -0.3125q-0.40625 -0.171875 -0.921875 -0.34375q-0.515625 -0.171875 -1.125 -0.265625q-0.609375 -0.109375 -1.234375 -0.109375q-1.328125 0 -2.390625 0.453125q-1.046875 0.453125 -1.796875 1.3125q-0.734375 0.859375 -1.140625 2.109375q-0.390625 1.234375 -0.390625 2.765625q0 1.484375 0.34375 2.71875q0.359375 1.21875 1.046875 2.09375q0.703125 0.875 1.75 1.359375q1.046875 0.46875 2.4375 0.46875q1.609375 0 2.65625 -0.328125q1.0625 -0.34375 1.59375 -0.59375l0.59375 1.90625q-0.171875 0.125 -0.609375 0.3125q-0.421875 0.171875 -1.078125 0.34375q-0.640625 0.171875 -1.515625 0.28125q-0.859375 0.125 -1.859375 0.125zm18.59871 -6.59375q0 1.484375 -0.4375 2.6875q-0.421875 1.1875 -1.203125 2.0625q-0.78125 0.859375 -1.859375 1.328125q-1.078125 0.46875 -2.359375 0.46875q-1.265625 0 -2.359375 -0.46875q-1.078125 -0.46875 -1.859375 -1.328125q-0.765625 -0.875 -1.203125 -2.0625q-0.4375 -1.203125 -0.4375 -2.6875q0 -1.46875 0.4375 -2.671875q0.4375 -1.21875 1.203125 -2.078125q0.78125 -0.875 1.859375 -1.34375q1.09375 -0.46875 2.359375 -0.46875q1.28125 0 2.359375 0.46875q1.078125 0.46875 1.859375 1.34375q0.78125 0.859375 1.203125 2.078125q0.4375 1.203125 0.4375 2.671875zm-2.328125 0q0 -2.125 -0.953125 -3.359375q-0.9375 -1.234375 -2.578125 -1.234375q-1.625 0 -2.578125 1.234375q-0.953125 1.234375 -0.953125 3.359375q0 2.109375 0.953125 3.34375q0.953125 1.234375 2.578125 1.234375q1.640625 0 2.578125 -1.234375q0.953125 -1.234375 0.953125 -3.34375zm10.081833 -6.515625q0.28125 0 0.65625 0.046875q0.37501526 0.03125 0.73439026 0.09375q0.359375 0.0625 0.65625 0.125q0.296875 0.046875 0.453125 0.09375l-0.390625 1.953125q-0.265625 -0.09375 -0.875 -0.21875q-0.60939026 -0.140625 -1.5781403 -0.140625q-0.625 0 -1.234375 0.140625q-0.609375 0.125 -0.796875 0.171875l0 10.484375l-2.234375 0l0 -11.953125q0.796875 -0.28125 1.96875 -0.53125q1.171875 -0.265625 2.640625 -0.265625zm3.9514923 6.53125q0 -1.65625 0.484375 -2.890625q0.484375 -1.234375 1.265625 -2.046875q0.796875 -0.8125 1.828125 -1.21875q1.03125 -0.421875 2.109375 -0.421875q2.53125 0 3.875 1.578125q1.34375 1.578125 1.34375 4.78125q0 0.15625 0 0.390625q0 0.21875 -0.03125 0.40625l-8.546875 0q0.15625 1.9375 1.125 2.953125q0.984375 1.0 3.078125 1.0q1.171875 0 1.96875 -0.203125q0.8125 -0.203125 1.21875 -0.390625l0.3125 1.875q-0.40625 0.21875 -1.421875 0.453125q-1.015625 0.234375 -2.3125 0.234375q-1.640625 0 -2.828125 -0.484375q-1.1875 -0.5 -1.953125 -1.359375q-0.765625 -0.859375 -1.140625 -2.046875q-0.375 -1.1875 -0.375 -2.609375zm8.578125 -1.21875q0.015625 -1.515625 -0.765625 -2.484375q-0.78125 -0.96875 -2.140625 -0.96875q-0.765625 0 -1.359375 0.296875q-0.59375 0.296875 -1.0 0.78125q-0.40625 0.46875 -0.640625 1.09375q-0.21875 0.625 -0.296875 1.28125l6.203125 0z" fill-rule="nonzero"></path><path fill="#000000" fill-opacity="0.0" d="m544.0 240.0l400.0 0l0 80.0l-400.0 0z" fill-rule="nonzero"></path><path stroke="#e69138" stroke-width="1.0" stroke-linejoin="round" stroke-linecap="butt" stroke-dasharray="4.0,3.0" d="m544.0 240.0l400.0 0l0 80.0l-400.0 0z" fill-rule="nonzero"></path><path fill="#e69138" d="m684.699 280.3525l2.328125 0l0 7.78125q-0.296875 0.09375 -0.84375 0.21875q-0.53125 0.109375 -1.234375 0.234375q-0.703125 0.125 -1.546875 0.203125q-0.84375 0.09375 -1.703125 0.09375q-1.75 0 -3.203125 -0.578125q-1.4375 -0.578125 -2.46875 -1.6875q-1.03125 -1.109375 -1.59375 -2.703125q-0.5625 -1.609375 -0.5625 -3.703125q0 -2.09375 0.625 -3.703125q0.640625 -1.625 1.71875 -2.71875q1.09375 -1.109375 2.546875 -1.6875q1.453125 -0.578125 3.109375 -0.578125q1.125 0 2.0 0.140625q0.875 0.140625 1.5 0.34375q0.625 0.1875 1.015625 0.390625q0.390625 0.1875 0.546875 0.28125l-0.75 1.9375q-0.6875 -0.453125 -1.84375 -0.75q-1.15625 -0.296875 -2.359375 -0.296875q-1.265625 0 -2.3125 0.453125q-1.046875 0.453125 -1.78125 1.3125q-0.71875 0.859375 -1.140625 2.109375q-0.40625 1.234375 -0.40625 2.765625q0 1.484375 0.34375 2.71875q0.359375 1.21875 1.0625 2.09375q0.703125 0.875 1.75 1.359375q1.046875 0.46875 2.46875 0.46875q1.0 0 1.703125 -0.09375q0.71875 -0.109375 1.03125 -0.203125l0 -6.203125zm10.44043 -4.5625q0.28125 0 0.65625 0.046875q0.375 0.03125 0.734375 0.09375q0.359375 0.0625 0.65625 0.125q0.296875 0.046875 0.453125 0.09375l-0.390625 1.953125q-0.265625 -0.09375 -0.875 -0.21875q-0.609375 -0.140625 -1.578125 -0.140625q-0.625 0 -1.234375 0.140625q-0.609375 0.125 -0.796875 0.171875l0 10.484375l-2.234375 0l0 -11.953125q0.796875 -0.28125 1.96875 -0.53125q1.171875 -0.265625 2.640625 -0.265625zm8.873352 11.140625q0.796875 0 1.40625 -0.03125q0.609375 -0.046875 1.015625 -0.140625l0 -3.71875q-0.234375 -0.109375 -0.78125 -0.1875q-0.53125 -0.09375 -1.296875 -0.09375q-0.515625 0 -1.078125 0.078125q-0.5625 0.0625 -1.03125 0.296875q-0.46875 0.21875 -0.78125 0.625q-0.3125 0.390625 -0.3125 1.03125q0 1.203125 0.765625 1.671875q0.78125 0.46875 2.09375 0.46875zm-0.1875 -11.1875q1.34375 0 2.265625 0.359375q0.921875 0.34375 1.484375 0.984375q0.5625 0.625 0.796875 1.5q0.25 0.875 0.25 1.9375l0 7.796875q-0.28125 0.046875 -0.796875 0.140625q-0.515625 0.078125 -1.171875 0.140625q-0.640625 0.078125 -1.40625 0.140625q-0.75 0.0625 -1.5 0.0625q-1.046875 0 -1.9375 -0.21875q-0.890625 -0.21875 -1.546875 -0.6875q-0.640625 -0.46875 -1.0 -1.234375q-0.359375 -0.765625 -0.359375 -1.84375q0 -1.03125 0.421875 -1.765625q0.421875 -0.75 1.140625 -1.203125q0.71875 -0.46875 1.671875 -0.671875q0.96875 -0.21875 2.015625 -0.21875q0.34375 0 0.703125 0.03125q0.359375 0.03125 0.671875 0.09375q0.328125 0.0625 0.5625 0.109375q0.25 0.046875 0.34375 0.078125l0 -0.625q0 -0.5625 -0.125 -1.09375q-0.109375 -0.546875 -0.421875 -0.96875q-0.3125 -0.421875 -0.859375 -0.671875q-0.53125 -0.25 -1.390625 -0.25q-1.109375 0 -1.9375 0.15625q-0.828125 0.15625 -1.234375 0.328125l-0.265625 -1.84375q0.4375 -0.203125 1.4375 -0.375q1.015625 -0.1875 2.1875 -0.1875zm16.559204 2.953125q-0.40625 -0.328125 -1.171875 -0.640625q-0.765625 -0.3125 -1.6875 -0.3125q-0.953125 0 -1.640625 0.34375q-0.6875 0.34375 -1.125 0.96875q-0.421875 0.609375 -0.625 1.453125q-0.1875 0.828125 -0.1875 1.796875q0 2.171875 1.078125 3.359375q1.09375 1.1875 2.890625 1.1875q0.90625 0 1.515625 -0.078125q0.609375 -0.078125 0.953125 -0.171875l0 -7.90625zm0 -8.390625l2.234375 -0.390625l0 18.265625q-0.765625 0.21875 -1.96875 0.421875q-1.203125 0.21875 -2.765625 0.21875q-1.4375 0 -2.59375 -0.453125q-1.140625 -0.453125 -1.96875 -1.28125q-0.8125 -0.84375 -1.265625 -2.0625q-0.4375 -1.21875 -0.4375 -2.71875q0 -1.453125 0.375 -2.640625q0.375 -1.203125 1.09375 -2.0625q0.71875 -0.875 1.765625 -1.34375q1.046875 -0.484375 2.390625 -0.484375q1.078125 0 1.90625 0.296875q0.828125 0.28125 1.234375 0.546875l0 -6.3125zm8.307861 18.234375l-2.234375 0l0 -12.484375l2.234375 0l0 12.484375zm-1.125 -14.734375q-0.609375 0 -1.03125 -0.390625q-0.421875 -0.40625 -0.421875 -1.078125q0 -0.671875 0.421875 -1.0625q0.421875 -0.390625 1.03125 -0.390625q0.59375 0 1.015625 0.390625q0.421875 0.390625 0.421875 1.0625q0 0.671875 -0.421875 1.078125q-0.421875 0.390625 -1.015625 0.390625zm4.9625854 2.609375q0.765625 -0.1875 2.03125 -0.40625q1.28125 -0.21875 2.9375 -0.21875q1.484375 0 2.46875 0.421875q0.984375 0.421875 1.5625 1.1875q0.59375 0.75 0.828125 1.8125q0.25 1.046875 0.25 2.3125l0 7.015625l-2.234375 0l0 -6.53125q0 -1.15625 -0.15625 -1.96875q-0.15625 -0.8125 -0.515625 -1.3125q-0.359375 -0.5 -0.96875 -0.734375q-0.59375 -0.234375 -1.484375 -0.234375q-0.359375 0 -0.75 0.03125q-0.375 0.015625 -0.71875 0.0625q-0.34375 0.03125 -0.625 0.078125q-0.28125 0.046875 -0.390625 0.078125l0 10.53125l-2.234375 0l0 -12.125zm21.604065 10.875q-0.296875 0.1875 -1.125 0.5q-0.828125 0.296875 -1.921875 0.296875q-1.140625 0 -2.140625 -0.359375q-0.984375 -0.359375 -1.734375 -1.109375q-0.734375 -0.765625 -1.171875 -1.890625q-0.4375 -1.125 -0.4375 -2.6875q0 -1.375 0.40625 -2.515625q0.421875 -1.140625 1.1875 -1.96875q0.78125 -0.828125 1.90625 -1.296875q1.140625 -0.46875 2.546875 -0.46875q1.5625 0 2.71875 0.234375q1.171875 0.234375 1.96875 0.421875l0 11.140625q0 2.875 -1.5 4.171875q-1.484375 1.296875 -4.5 1.296875q-1.171875 0 -2.21875 -0.203125q-1.046875 -0.1875 -1.8125 -0.453125l0.40625 -1.9375q0.671875 0.265625 1.640625 0.46875q0.96875 0.203125 2.03125 0.203125q1.984375 0 2.859375 -0.796875q0.890625 -0.78125 0.890625 -2.515625l0 -0.53125zm-0.03125 -9.265625q-0.328125 -0.09375 -0.90625 -0.171875q-0.5625 -0.09375 -1.515625 -0.09375q-1.796875 0 -2.78125 1.1875q-0.96875 1.171875 -0.96875 3.109375q0 1.078125 0.28125 1.859375q0.28125 0.765625 0.75 1.265625q0.46875 0.5 1.078125 0.75q0.609375 0.234375 1.25 0.234375q0.890625 0 1.625 -0.25q0.75 -0.25 1.1875 -0.59375l0 -7.296875zm18.915955 10.875q-1.75 0 -3.203125 -0.578125q-1.4375 -0.578125 -2.46875 -1.671875q-1.03125 -1.109375 -1.59375 -2.71875q-0.5625 -1.625 -0.5625 -3.71875q0 -2.09375 0.625 -3.703125q0.640625 -1.625 1.71875 -2.71875q1.09375 -1.109375 2.53125 -1.6875q1.4375 -0.578125 3.078125 -0.578125q1.03125 0 1.859375 0.140625q0.828125 0.140625 1.4375 0.34375q0.609375 0.1875 0.984375 0.390625q0.390625 0.1875 0.53125 0.28125l-0.671875 1.921875q-0.21875 -0.15625 -0.625 -0.3125q-0.40625 -0.171875 -0.921875 -0.34375q-0.515625 -0.171875 -1.125 -0.265625q-0.609375 -0.109375 -1.234375 -0.109375q-1.328125 0 -2.390625 0.453125q-1.046875 0.453125 -1.796875 1.3125q-0.734375 0.859375 -1.140625 2.109375q-0.390625 1.234375 -0.390625 2.765625q0 1.484375 0.34375 2.71875q0.359375 1.21875 1.046875 2.09375q0.703125 0.875 1.75 1.359375q1.046875 0.46875 2.4375 0.46875q1.609375 0 2.65625 -0.328125q1.0625 -0.34375 1.59375 -0.59375l0.59375 1.90625q-0.171875 0.125 -0.609375 0.3125q-0.421875 0.171875 -1.078125 0.34375q-0.640625 0.171875 -1.515625 0.28125q-0.859375 0.125 -1.859375 0.125zm18.598755 -6.59375q0 1.484375 -0.4375 2.6875q-0.421875 1.1875 -1.203125 2.0625q-0.78125 0.859375 -1.859375 1.328125q-1.078125 0.46875 -2.359375 0.46875q-1.265625 0 -2.359375 -0.46875q-1.078125 -0.46875 -1.859375 -1.328125q-0.765625 -0.875 -1.203125 -2.0625q-0.4375 -1.203125 -0.4375 -2.6875q0 -1.46875 0.4375 -2.671875q0.4375 -1.21875 1.203125 -2.078125q0.78125 -0.875 1.859375 -1.34375q1.09375 -0.46875 2.359375 -0.46875q1.28125 0 2.359375 0.46875q1.078125 0.46875 1.859375 1.34375q0.78125 0.859375 1.203125 2.078125q0.4375 1.203125 0.4375 2.671875zm-2.328125 0q0 -2.125 -0.953125 -3.359375q-0.9375 -1.234375 -2.578125 -1.234375q-1.625 0 -2.578125 1.234375q-0.953125 1.234375 -0.953125 3.359375q0 2.109375 0.953125 3.34375q0.953125 1.234375 2.578125 1.234375q1.640625 0 2.578125 -1.234375q0.953125 -1.234375 0.953125 -3.34375zm10.081787 -6.515625q0.28125 0 0.65625 0.046875q0.375 0.03125 0.734375 0.09375q0.359375 0.0625 0.65625 0.125q0.296875 0.046875 0.453125 0.09375l-0.390625 1.953125q-0.265625 -0.09375 -0.875 -0.21875q-0.609375 -0.140625 -1.578125 -0.140625q-0.625 0 -1.234375 0.140625q-0.609375 0.125 -0.796875 0.171875l0 10.484375l-2.234375 0l0 -11.953125q0.796875 -0.28125 1.96875 -0.53125q1.171875 -0.265625 2.640625 -0.265625zm3.951477 6.53125q0 -1.65625 0.484375 -2.890625q0.484375 -1.234375 1.265625 -2.046875q0.796875 -0.8125 1.828125 -1.21875q1.03125 -0.421875 2.109375 -0.421875q2.53125 0 3.875 1.578125q1.34375 1.578125 1.34375 4.78125q0 0.15625 0 0.390625q0 0.21875 -0.03125 0.40625l-8.546875 0q0.15625 1.9375 1.125 2.953125q0.984375 1.0 3.078125 1.0q1.171875 0 1.96875 -0.203125q0.8125 -0.203125 1.21875 -0.390625l0.3125 1.875q-0.40625 0.21875 -1.421875 0.453125q-1.015625 0.234375 -2.3125 0.234375q-1.640625 0 -2.828125 -0.484375q-1.1875 -0.5 -1.953125 -1.359375q-0.765625 -0.859375 -1.140625 -2.046875q-0.375 -1.1875 -0.375 -2.609375zm8.578125 -1.21875q0.015625 -1.515625 -0.765625 -2.484375q-0.78125 -0.96875 -2.140625 -0.96875q-0.765625 0 -1.359375 0.296875q-0.59375 0.296875 -1.0 0.78125q-0.40625 0.46875 -0.640625 1.09375q-0.21875 0.625 -0.296875 1.28125l6.203125 0z" fill-rule="nonzero"></path><path fill="#000000" fill-opacity="0.0" d="m744.0 320.0l0 48.0" fill-rule="nonzero"></path><path stroke="#e69138" stroke-width="3.0" stroke-linejoin="round" stroke-linecap="butt" d="m744.0 338.0l0 12.0" fill-rule="evenodd"></path><path fill="#e69138" stroke="#e69138" stroke-width="3.0" stroke-linecap="butt" d="m748.9552 338.0l-4.9552 -13.614288l-4.9552 13.614288z" fill-rule="evenodd"></path><path fill="#e69138" stroke="#e69138" stroke-width="3.0" stroke-linecap="butt" d="m739.0448 350.0l4.9552 13.614288l4.9552 -13.614288z" fill-rule="evenodd"></path><path fill="#ffffff" d="m8.0 8.0l304.0 0l0 56.0l-304.0 0z" fill-rule="nonzero"></path><path stroke="#a4c2f4" stroke-width="3.0" stroke-linejoin="round" stroke-linecap="butt" d="m8.0 8.0l304.0 0l0 56.0l-304.0 0z" fill-rule="nonzero"></path><path fill="#ffffff" d="m24.0 24.0l304.0 0l0 56.0l-304.0 0z" fill-rule="nonzero"></path><path stroke="#a4c2f4" stroke-width="3.0" stroke-linejoin="round" stroke-linecap="butt" d="m24.0 24.0l304.0 0l0 56.0l-304.0 0z" fill-rule="nonzero"></path><path fill="#ffffff" d="m40.0 40.0l304.0 0l0 56.0l-304.0 0z" fill-rule="nonzero"></path><path stroke="#a4c2f4" stroke-width="3.0" stroke-linejoin="round" stroke-linecap="butt" d="m40.0 40.0l304.0 0l0 56.0l-304.0 0z" fill-rule="nonzero"></path><path fill="#000000" fill-opacity="0.0" d="m48.0 48.0l288.0 0l0 40.0l-288.0 0z" fill-rule="nonzero"></path><path fill="#a4c2f4" d="m72.79347 70.43875q0.515625 0.640625 1.296875 1.6875q0.796875 1.03125 1.625 2.296875q0.828125 1.265625 1.640625 2.640625q0.8125 1.375 1.390625 2.65625l-3.390625 0q-0.640625 -1.21875 -1.390625 -2.46875q-0.75 -1.25 -1.515625 -2.375q-0.765625 -1.140625 -1.53125 -2.125q-0.75 -1.0 -1.34375 -1.734375q-0.421875 0.03125 -0.859375 0.03125q-0.421875 0 -0.875 0l-2.78125 0l0 8.671875l-3.109375 0l0 -21.859375q1.3125 -0.3125 2.921875 -0.421875q1.625 -0.125 2.96875 -0.125q4.671875 0 7.109375 1.765625q2.453125 1.765625 2.453125 5.25q0 2.203125 -1.171875 3.78125q-1.15625 1.5625 -3.4375 2.328125zm-4.703125 -10.40625q-1.984375 0 -3.03125 0.109375l0 8.34375l2.203125 0q1.59375 0 2.875 -0.15625q1.28125 -0.15625 2.15625 -0.609375q0.890625 -0.453125 1.359375 -1.265625q0.484375 -0.8125 0.484375 -2.15625q0 -1.25 -0.484375 -2.078125q-0.46875 -0.84375 -1.28125 -1.3125q-0.8125 -0.484375 -1.921875 -0.671875q-1.109375 -0.203125 -2.359375 -0.203125zm27.049911 19.203125q-1.03125 0.265625 -2.71875 0.546875q-1.671875 0.296875 -3.875 0.296875q-1.921875 0 -3.234375 -0.5625q-1.3125 -0.5625 -2.109375 -1.578125q-0.796875 -1.03125 -1.15625 -2.421875q-0.34375 -1.390625 -0.34375 -3.09375l0 -9.34375l2.96875 0l0 8.703125q0 3.046875 0.953125 4.359375q0.96875 1.3125 3.234375 1.3125q0.484375 0 1.0 -0.03125q0.515625 -0.046875 0.953125 -0.09375q0.453125 -0.046875 0.8125 -0.09375q0.375 -0.046875 0.53125 -0.109375l0 -14.046875l2.984375 0l0 16.15625zm5.118042 -15.671875q1.015625 -0.265625 2.703125 -0.546875q1.703125 -0.28125 3.921875 -0.28125q1.984375 0 3.296875 0.5625q1.3125 0.546875 2.09375 1.5625q0.78125 1.0 1.09375 2.40625q0.328125 1.40625 0.328125 3.109375l0 9.34375l-2.96875 0l0 -8.703125q0 -1.53125 -0.21875 -2.625q-0.203125 -1.09375 -0.6875 -1.765625q-0.484375 -0.671875 -1.28125 -0.96875q-0.796875 -0.3125 -1.984375 -0.3125q-0.46875 0 -0.984375 0.046875q-0.515625 0.03125 -0.984375 0.078125q-0.453125 0.046875 -0.828125 0.109375q-0.359375 0.0625 -0.53125 0.09375l0 14.046875l-2.96875 0l0 -16.15625zm25.947556 16.15625l0 -22.171875l13.53125 0l0 2.65625l-10.421875 0l0 6.59375l9.28125 0l0 2.578125l-9.28125 0l0 7.6875l11.234375 0l0 2.65625l-14.34375 0zm18.084534 -16.15625q1.015625 -0.265625 2.703125 -0.546875q1.703125 -0.28125 3.921875 -0.28125q1.984375 0 3.296875 0.5625q1.3125 0.546875 2.09375 1.5625q0.78125 1.0 1.09375 2.40625q0.328125 1.40625 0.328125 3.109375l0 9.34375l-2.96875 0l0 -8.703125q0 -1.53125 -0.21875 -2.625q-0.203125 -1.09375 -0.6875 -1.765625q-0.484375 -0.671875 -1.28125 -0.96875q-0.796875 -0.3125 -1.984375 -0.3125q-0.46875 0 -0.984375 0.046875q-0.515625 0.03125 -0.984375 0.078125q-0.453125 0.046875 -0.828125 0.109375q-0.359375 0.0625 -0.53125 0.09375l0 14.046875l-2.96875 0l0 -16.15625zm31.352417 -0.484375q-1.25 4.671875 -2.9375 8.96875q-1.671875 4.28125 -3.234375 7.671875l-2.6875 0q-1.5625 -3.390625 -3.25 -7.671875q-1.671875 -4.296875 -2.921875 -8.96875l3.203125 0q0.375 1.5625 0.90625 3.34375q0.53125 1.78125 1.125 3.53125q0.59375 1.734375 1.1875 3.375q0.609375 1.625 1.15625 2.90625q0.546875 -1.28125 1.15625 -2.90625q0.609375 -1.640625 1.203125 -3.375q0.59375 -1.75 1.109375 -3.53125q0.53125 -1.78125 0.921875 -3.34375l3.0625 0zm6.048401 16.640625l-2.96875 0l0 -16.640625l2.96875 0l0 16.640625zm-1.5 -19.640625q-0.796875 0 -1.359375 -0.53125q-0.5625 -0.53125 -0.5625 -1.421875q0 -0.90625 0.5625 -1.421875q0.5625 -0.53125 1.359375 -0.53125q0.796875 0 1.359375 0.53125q0.5625 0.515625 0.5625 1.421875q0 0.890625 -0.5625 1.421875q-0.5625 0.53125 -1.359375 0.53125zm12.767899 2.65625q0.390625 0 0.875 0.046875q0.5 0.046875 0.984375 0.125q0.484375 0.078125 0.875 0.15625q0.40625 0.078125 0.59375 0.140625l-0.515625 2.59375q-0.34375 -0.125 -1.171875 -0.296875q-0.8125 -0.1875 -2.09375 -0.1875q-0.828125 0 -1.640625 0.1875q-0.8125 0.171875 -1.078125 0.234375l0 13.984375l-2.96875 0l0 -15.9375q1.046875 -0.375 2.609375 -0.703125q1.578125 -0.34375 3.53125 -0.34375zm20.898895 8.671875q0 1.96875 -0.578125 3.578125q-0.578125 1.59375 -1.625 2.75q-1.03125 1.15625 -2.46875 1.78125q-1.4375 0.625 -3.140625 0.625q-1.6875 0 -3.140625 -0.625q-1.4375 -0.625 -2.484375 -1.78125q-1.03125 -1.15625 -1.609375 -2.75q-0.578125 -1.609375 -0.578125 -3.578125q0 -1.953125 0.578125 -3.5625q0.578125 -1.625 1.609375 -2.78125q1.046875 -1.15625 2.484375 -1.78125q1.453125 -0.625 3.140625 -0.625q1.703125 0 3.140625 0.625q1.4375 0.625 2.46875 1.78125q1.046875 1.15625 1.625 2.78125q0.578125 1.609375 0.578125 3.5625zm-3.109375 0q0 -2.828125 -1.265625 -4.46875q-1.265625 -1.65625 -3.4375 -1.65625q-2.171875 0 -3.4375 1.65625q-1.265625 1.640625 -1.265625 4.46875q0 2.8125 1.265625 4.46875q1.265625 1.640625 3.4375 1.640625q2.171875 0 3.4375 -1.640625q1.265625 -1.65625 1.265625 -4.46875zm7.3019104 -7.84375q1.015625 -0.265625 2.703125 -0.546875q1.703125 -0.28125 3.921875 -0.28125q1.984375 0 3.296875 0.5625q1.3125 0.546875 2.09375 1.5625q0.78125 1.0 1.09375 2.40625q0.328125 1.40625 0.328125 3.109375l0 9.34375l-2.96875 0l0 -8.703125q0 -1.53125 -0.21875 -2.625q-0.203125 -1.09375 -0.6875 -1.765625q-0.484375 -0.671875 -1.28125 -0.96875q-0.796875 -0.3125 -1.984375 -0.3125q-0.46875 0 -0.984375 0.046875q-0.515625 0.03125 -0.984375 0.078125q-0.453125 0.046875 -0.828125 0.109375q-0.359375 0.0625 -0.53125 0.09375l0 14.046875l-2.96875 0l0 -16.15625zm18.368042 0q1.015625 -0.265625 2.6875 -0.546875q1.6875 -0.28125 3.90625 -0.28125q1.59375 0 2.671875 0.4375q1.09375 0.421875 1.828125 1.25q0.234375 -0.15625 0.703125 -0.4375q0.484375 -0.296875 1.1875 -0.5625q0.703125 -0.28125 1.5625 -0.484375q0.875 -0.203125 1.859375 -0.203125q1.921875 0 3.140625 0.5625q1.21875 0.546875 1.90625 1.578125q0.6875 1.015625 0.921875 2.421875q0.25 1.40625 0.25 3.078125l0 9.34375l-2.984375 0l0 -8.703125q0 -1.46875 -0.140625 -2.515625q-0.140625 -1.0625 -0.546875 -1.765625q-0.390625 -0.71875 -1.078125 -1.046875q-0.6875 -0.34375 -1.78125 -0.34375q-1.5 0 -2.484375 0.40625q-0.96875 0.40625 -1.328125 0.71875q0.265625 0.828125 0.390625 1.828125q0.125 0.984375 0.125 2.078125l0 9.34375l-2.96875 0l0 -8.703125q0 -1.46875 -0.171875 -2.515625q-0.15625 -1.0625 -0.5625 -1.765625q-0.390625 -0.71875 -1.078125 -1.046875q-0.6875 -0.34375 -1.75 -0.34375q-0.4375 0 -0.953125 0.046875q-0.515625 0.03125 -0.984375 0.078125q-0.453125 0.046875 -0.84375 0.109375q-0.390625 0.0625 -0.515625 0.09375l0 14.046875l-2.96875 0l0 -16.15625zm26.614563 7.875q0 -2.21875 0.640625 -3.859375q0.640625 -1.65625 1.703125 -2.734375q1.0625 -1.09375 2.4375 -1.640625q1.375 -0.546875 2.8125 -0.546875q3.359375 0 5.140625 2.109375q1.796875 2.09375 1.796875 6.375q0 0.1875 0 0.5q0 0.296875 -0.03125 0.5625l-11.390625 0q0.1875 2.59375 1.5 3.9375q1.3125 1.34375 4.109375 1.34375q1.5625 0 2.625 -0.265625q1.078125 -0.28125 1.625 -0.546875l0.421875 2.5q-0.546875 0.296875 -1.90625 0.609375q-1.359375 0.328125 -3.09375 0.328125q-2.171875 0 -3.765625 -0.65625q-1.578125 -0.65625 -2.609375 -1.8125q-1.015625 -1.15625 -1.515625 -2.734375q-0.5 -1.59375 -0.5 -3.46875zm11.4375 -1.640625q0.03125 -2.015625 -1.015625 -3.3125q-1.03125 -1.296875 -2.859375 -1.296875q-1.03125 0 -1.8125 0.40625q-0.78125 0.390625 -1.328125 1.03125q-0.546875 0.640625 -0.859375 1.484375q-0.296875 0.828125 -0.390625 1.6875l8.265625 0zm7.388031 -6.234375q1.015625 -0.265625 2.703125 -0.546875q1.703125 -0.28125 3.921875 -0.28125q1.984375 0 3.296875 0.5625q1.3125 0.546875 2.09375 1.5625q0.78125 1.0 1.09375 2.40625q0.328125 1.40625 0.328125 3.109375l0 9.34375l-2.96875 0l0 -8.703125q0 -1.53125 -0.21875 -2.625q-0.203125 -1.09375 -0.6875 -1.765625q-0.484375 -0.671875 -1.28125 -0.96875q-0.796875 -0.3125 -1.984375 -0.3125q-0.46875 0 -0.984375 0.046875q-0.515625 0.03125 -0.984375 0.078125q-0.453125 0.046875 -0.828125 0.109375q-0.359375 0.0625 -0.53125 0.09375l0 14.046875l-2.96875 0l0 -16.15625zm21.149292 -0.484375l6.296875 0l0 2.5l-6.296875 0l0 7.671875q0 1.25 0.1875 2.078125q0.203125 0.8125 0.578125 1.28125q0.390625 0.453125 0.953125 0.65625q0.578125 0.1875 1.359375 0.1875q1.34375 0 2.15625 -0.296875q0.8125 -0.3125 1.140625 -0.453125l0.5625 2.46875q-0.4375 0.234375 -1.5625 0.5625q-1.125 0.34375 -2.5625 0.34375q-1.6875 0 -2.796875 -0.4375q-1.109375 -0.4375 -1.78125 -1.296875q-0.671875 -0.859375 -0.9375 -2.125q-0.265625 -1.265625 -0.265625 -2.9375l0 -14.84375l2.96875 -0.515625l0 5.15625zm13.957794 14.5q1.8125 0 2.6875 -0.484375q0.890625 -0.484375 0.890625 -1.53125q0 -1.09375 -0.875 -1.734375q-0.859375 -0.640625 -2.84375 -1.4375q-0.953125 -0.390625 -1.84375 -0.78125q-0.875 -0.40625 -1.515625 -0.9375q-0.640625 -0.546875 -1.03125 -1.3125q-0.375 -0.78125 -0.375 -1.890625q0 -2.21875 1.625 -3.515625q1.640625 -1.296875 4.453125 -1.296875q0.703125 0 1.40625 0.09375q0.71875 0.078125 1.3125 0.1875q0.609375 0.109375 1.078125 0.234375q0.46875 0.125 0.71875 0.234375l-0.546875 2.546875q-0.46875 -0.25 -1.5 -0.515625q-1.015625 -0.28125 -2.46875 -0.28125q-1.234375 0 -2.171875 0.5q-0.921875 0.5 -0.921875 1.546875q0 0.546875 0.203125 0.96875q0.203125 0.40625 0.640625 0.75q0.4375 0.328125 1.078125 0.625q0.640625 0.28125 1.53125 0.609375q1.1875 0.4375 2.109375 0.875q0.9375 0.4375 1.578125 1.015625q0.65625 0.5625 1.015625 1.390625q0.359375 0.8125 0.359375 2.0q0 2.296875 -1.71875 3.484375q-1.71875 1.1875 -4.875 1.1875q-2.21875 0 -3.46875 -0.375q-1.234375 -0.375 -1.6875 -0.5625l0.546875 -2.5625q0.515625 0.203125 1.625 0.59375q1.125 0.375 2.984375 0.375z" fill-rule="nonzero"></path><path fill="#000000" fill-opacity="0.0" d="m392.0 48.0l-48.0 0" fill-rule="nonzero"></path><path stroke="#3c78d8" stroke-width="3.0" stroke-linejoin="round" stroke-linecap="butt" d="m374.0 48.0l-12.0 0" fill-rule="evenodd"></path><path fill="#3c78d8" stroke="#3c78d8" stroke-width="3.0" stroke-linecap="butt" d="m374.0 52.955196l13.614288 -4.9551964l-13.614288 -4.9551964z" fill-rule="evenodd"></path><path fill="#3c78d8" stroke="#3c78d8" stroke-width="3.0" stroke-linecap="butt" d="m362.0 43.044804l-13.614288 4.9551964l13.614288 4.9551964z" fill-rule="evenodd"></path><path fill="#000000" fill-opacity="0.0" d="m560.0 80.0l0 48.0" fill-rule="nonzero"></path><path stroke="#674ea7" stroke-width="3.0" stroke-linejoin="round" stroke-linecap="butt" d="m560.0 98.0l0 12.0" fill-rule="evenodd"></path><path fill="#674ea7" stroke="#674ea7" stroke-width="3.0" stroke-linecap="butt" d="m564.9552 98.0l-4.9552 -13.614296l-4.9552 13.614296z" fill-rule="evenodd"></path><path fill="#674ea7" stroke="#674ea7" stroke-width="3.0" stroke-linecap="butt" d="m555.0448 110.0l4.9552 13.614296l4.9552 -13.614296z" fill-rule="evenodd"></path><path fill="#000000" fill-opacity="0.0" d="m928.0 80.0l0 48.0" fill-rule="nonzero"></path><path stroke="#a64d79" stroke-width="3.0" stroke-linejoin="round" stroke-linecap="butt" d="m928.0 98.0l0 12.0" fill-rule="evenodd"></path><path fill="#a64d79" stroke="#a64d79" stroke-width="3.0" stroke-linecap="butt" d="m932.9552 98.0l-4.9552 -13.614296l-4.9552 13.614296z" fill-rule="evenodd"></path><path fill="#a64d79" stroke="#a64d79" stroke-width="3.0" stroke-linecap="butt" d="m923.0448 110.0l4.9552 13.614296l4.9552 -13.614296z" fill-rule="evenodd"></path><path fill="#000000" fill-opacity="0.0" d="m48.0 192.0l0 48.0" fill-rule="nonzero"></path><path stroke="#674ea7" stroke-width="3.0" stroke-linejoin="round" stroke-linecap="butt" d="m48.0 210.0l0 12.0" fill-rule="evenodd"></path><path fill="#674ea7" stroke="#674ea7" stroke-width="3.0" stroke-linecap="butt" d="m52.955196 210.0l-4.9551964 -13.614288l-4.9551964 13.614288z" fill-rule="evenodd"></path><path fill="#674ea7" stroke="#674ea7" stroke-width="3.0" stroke-linecap="butt" d="m43.044804 222.0l4.9551964 13.614288l4.9551964 -13.614288z" fill-rule="evenodd"></path><path fill="#000000" fill-opacity="0.0" d="m928.0 192.0l0 48.0" fill-rule="nonzero"></path><path stroke="#a64d79" stroke-width="3.0" stroke-linejoin="round" stroke-linecap="butt" d="m928.0 210.0l0 12.0" fill-rule="evenodd"></path><path fill="#a64d79" stroke="#a64d79" stroke-width="3.0" stroke-linecap="butt" d="m932.9552 210.0l-4.9552 -13.614288l-4.9552 13.614288z" fill-rule="evenodd"></path><path fill="#a64d79" stroke="#a64d79" stroke-width="3.0" stroke-linecap="butt" d="m923.0448 222.0l4.9552 13.614288l4.9552 -13.614288z" fill-rule="evenodd"></path><path fill="#ffffff" d="m392.0 16.0l560.0 0l0 64.0l-560.0 0z" fill-rule="nonzero"></path><path stroke="#3c78d8" stroke-width="3.0" stroke-linejoin="round" stroke-linecap="butt" d="m392.0 16.0l560.0 0l0 64.0l-560.0 0z" fill-rule="nonzero"></path><path fill="#000000" fill-opacity="0.0" d="m400.0 24.0l544.0 0l0 48.0l-544.0 0z" fill-rule="nonzero"></path><path fill="#3c78d8" d="m537.30994 52.579376q0 1.609375 -0.34375 2.984375q-0.328125 1.375 -1.171875 2.421875q-0.84375 1.03125 -2.28125 1.625q-1.421875 0.59375 -3.5625 0.59375q-1.09375 0 -2.0 -0.1875q-0.90625 -0.171875 -1.65625 -0.4375q-0.734375 -0.28125 -1.28125 -0.578125q-0.53125 -0.3125 -0.859375 -0.59375l1.21875 -2.46875q0.671875 0.484375 1.734375 1.015625q1.078125 0.53125 2.6875 0.53125q2.296875 0 3.34375 -1.171875q1.0625 -1.171875 1.0625 -4.015625l0 -14.75l3.109375 0l0 15.03125zm19.843811 -1.171875q0 1.96875 -0.578125 3.578125q-0.578125 1.59375 -1.625 2.75q-1.03125 1.15625 -2.46875 1.78125q-1.4375 0.625 -3.140625 0.625q-1.6875 0 -3.140625 -0.625q-1.4375 -0.625 -2.484375 -1.78125q-1.03125 -1.15625 -1.609375 -2.75q-0.578125 -1.609375 -0.578125 -3.578125q0 -1.953125 0.578125 -3.5625q0.578125 -1.625 1.609375 -2.78125q1.046875 -1.15625 2.484375 -1.78125q1.453125 -0.625 3.140625 -0.625q1.703125 0 3.140625 0.625q1.4375 0.625 2.46875 1.78125q1.046875 1.15625 1.625 2.78125q0.578125 1.609375 0.578125 3.5625zm-3.109375 0q0 -2.828125 -1.265625 -4.46875q-1.265625 -1.65625 -3.4375 -1.65625q-2.171875 0 -3.4375 1.65625q-1.265625 1.640625 -1.265625 4.46875q0 2.8125 1.265625 4.46875q1.265625 1.640625 3.4375 1.640625q2.171875 0 3.4375 -1.640625q1.265625 -1.65625 1.265625 -4.46875zm10.27063 -7.59375q0.546875 -0.34375 1.640625 -0.734375q1.109375 -0.390625 2.5625 -0.390625q1.78125 0 3.171875 0.640625q1.390625 0.640625 2.34375 1.796875q0.96875 1.15625 1.46875 2.765625q0.5 1.59375 0.5 3.515625q0 2.015625 -0.59375 3.625q-0.59375 1.609375 -1.6875 2.734375q-1.078125 1.125 -2.625 1.734375q-1.53125 0.609375 -3.453125 0.609375q-2.078125 0 -3.6875 -0.296875q-1.59375 -0.28125 -2.609375 -0.578125l0 -23.828125l2.96875 -0.515625l0 8.921875zm0 13.3125q0.453125 0.125 1.265625 0.25q0.8125 0.109375 2.03125 0.109375q2.40625 0 3.84375 -1.578125q1.4375 -1.59375 1.4375 -4.5q0 -1.28125 -0.265625 -2.40625q-0.25 -1.125 -0.828125 -1.9375q-0.5625 -0.8125 -1.484375 -1.28125q-0.90625 -0.46875 -2.1875 -0.46875q-1.21875 0 -2.25 0.421875q-1.015625 0.421875 -1.5625 0.859375l0 10.53125zm34.30255 -6.6875q0.515625 0.640625 1.296875 1.6875q0.796875 1.03125 1.625 2.296875q0.828125 1.265625 1.640625 2.640625q0.8125 1.375 1.390625 2.65625l-3.390625 0q-0.640625 -1.21875 -1.390625 -2.46875q-0.75 -1.25 -1.515625 -2.375q-0.765625 -1.140625 -1.53125 -2.125q-0.75 -1.0 -1.34375 -1.734375q-0.421875 0.03125 -0.859375 0.03125q-0.421875 0 -0.875 0l-2.78125 0l0 8.671875l-3.109375 0l0 -21.859375q1.3125 -0.3125 2.921875 -0.421875q1.625 -0.125 2.96875 -0.125q4.671875 0 7.109375 1.765625q2.453125 1.765625 2.453125 5.25q0 2.203125 -1.171875 3.78125q-1.15625 1.5625 -3.4375 2.328125zm-4.703125 -10.40625q-1.984375 0 -3.03125 0.109375l0 8.34375l2.203125 0q1.59375 0 2.875 -0.15625q1.28125 -0.15625 2.15625 -0.609375q0.890625 -0.453125 1.359375 -1.265625q0.484375 -0.8125 0.484375 -2.15625q0 -1.25 -0.484375 -2.078125q-0.46875 -0.84375 -1.28125 -1.3125q-0.8125 -0.484375 -1.921875 -0.671875q-1.109375 -0.203125 -2.359375 -0.203125zm27.049927 19.203125q-1.03125 0.265625 -2.71875 0.546875q-1.671875 0.296875 -3.875 0.296875q-1.921875 0 -3.234375 -0.5625q-1.3125 -0.5625 -2.109375 -1.578125q-0.796875 -1.03125 -1.15625 -2.421875q-0.34375 -1.390625 -0.34375 -3.09375l0 -9.34375l2.96875 0l0 8.703125q0 3.046875 0.953125 4.359375q0.96875 1.3125 3.234375 1.3125q0.484375 0 1.0 -0.03125q0.515625 -0.046875 0.953125 -0.09375q0.453125 -0.046875 0.8125 -0.09375q0.375 -0.046875 0.53125 -0.109375l0 -14.046875l2.984375 0l0 16.15625zm5.118042 -15.671875q1.015625 -0.265625 2.703125 -0.546875q1.703125 -0.28125 3.921875 -0.28125q1.984375 0 3.296875 0.5625q1.3125 0.546875 2.09375 1.5625q0.78125 1.0 1.09375 2.40625q0.328125 1.40625 0.328125 3.109375l0 9.34375l-2.96875 0l0 -8.703125q0 -1.53125 -0.21875 -2.625q-0.203125 -1.09375 -0.6875 -1.765625q-0.484375 -0.671875 -1.28125 -0.96875q-0.796875 -0.3125 -1.984375 -0.3125q-0.46875 0 -0.984375 0.046875q-0.515625 0.03125 -0.984375 0.078125q-0.453125 0.046875 -0.828125 0.109375q-0.359375 0.0625 -0.53125 0.09375l0 14.046875l-2.96875 0l0 -16.15625zm18.368042 0q1.015625 -0.265625 2.703125 -0.546875q1.703125 -0.28125 3.921875 -0.28125q1.984375 0 3.296875 0.5625q1.3125 0.546875 2.09375 1.5625q0.78125 1.0 1.09375 2.40625q0.328125 1.40625 0.328125 3.109375l0 9.34375l-2.96875 0l0 -8.703125q0 -1.53125 -0.21875 -2.625q-0.203125 -1.09375 -0.6875 -1.765625q-0.484375 -0.671875 -1.28125 -0.96875q-0.796875 -0.3125 -1.984375 -0.3125q-0.46875 0 -0.984375 0.046875q-0.515625 0.03125 -0.984375 0.078125q-0.453125 0.046875 -0.828125 0.109375q-0.359375 0.0625 -0.53125 0.09375l0 14.046875l-2.96875 0l0 -16.15625zm17.430542 7.875q0 -2.21875 0.640625 -3.859375q0.640625 -1.65625 1.703125 -2.734375q1.0625 -1.09375 2.4375 -1.640625q1.375 -0.546875 2.8125 -0.546875q3.359375 0 5.140625 2.109375q1.796875 2.09375 1.796875 6.375q0 0.1875 0 0.5q0 0.296875 -0.03125 0.5625l-11.390625 0q0.1875 2.59375 1.5 3.9375q1.3125 1.34375 4.109375 1.34375q1.5625 0 2.625 -0.265625q1.078125 -0.28125 1.625 -0.546875l0.421875 2.5q-0.546875 0.296875 -1.90625 0.609375q-1.359375 0.328125 -3.09375 0.328125q-2.171875 0 -3.765625 -0.65625q-1.578125 -0.65625 -2.609375 -1.8125q-1.015625 -1.15625 -1.515625 -2.734375q-0.5 -1.59375 -0.5 -3.46875zm11.4375 -1.640625q0.03125 -2.015625 -1.015625 -3.3125q-1.03125 -1.296875 -2.859375 -1.296875q-1.03125 0 -1.8125 0.40625q-0.78125 0.390625 -1.328125 1.03125q-0.546875 0.640625 -0.859375 1.484375q-0.296875 0.828125 -0.390625 1.6875l8.265625 0zm13.528687 -7.0625q0.390625 0 0.875 0.046875q0.5 0.046875 0.984375 0.125q0.484375 0.078125 0.875 0.15625q0.40625 0.078125 0.59375 0.140625l-0.515625 2.59375q-0.34375 -0.125 -1.171875 -0.296875q-0.8125 -0.1875 -2.09375 -0.1875q-0.828125 0 -1.640625 0.1875q-0.8125 0.171875 -1.078125 0.234375l0 13.984375l-2.96875 0l0 -15.9375q1.046875 -0.375 2.609375 -0.703125q1.578125 -0.34375 3.53125 -0.34375zm31.994019 5.875q0 2.890625 -0.890625 5.015625q-0.890625 2.125 -2.53125 3.515625q-1.625 1.390625 -3.90625 2.078125q-2.265625 0.6875 -4.984375 0.6875q-1.34375 0 -2.96875 -0.109375q-1.609375 -0.109375 -2.921875 -0.4375l0 -21.5q1.3125 -0.3125 2.921875 -0.421875q1.625 -0.125 2.96875 -0.125q2.71875 0 4.984375 0.6875q2.28125 0.6875 3.90625 2.09375q1.640625 1.390625 2.53125 3.515625q0.890625 2.125 0.890625 5.0zm-12.0625 8.578125q4.421875 0 6.59375 -2.25q2.171875 -2.265625 2.171875 -6.328125q0 -4.0625 -2.171875 -6.3125q-2.171875 -2.265625 -6.59375 -2.265625q-1.3125 0 -2.03125 0.046875q-0.71875 0.03125 -1.0 0.0625l0 16.953125q0.28125 0.03125 1.0 0.0625q0.71875 0.03125 2.03125 0.03125zm22.112915 0.390625q1.0625 0 1.875 -0.046875q0.8125 -0.046875 1.359375 -0.1875l0 -4.953125q-0.3125 -0.15625 -1.046875 -0.265625q-0.71875 -0.125 -1.734375 -0.125q-0.671875 0 -1.421875 0.109375q-0.75 0.09375 -1.375 0.40625q-0.625 0.296875 -1.046875 0.828125q-0.40625 0.515625 -0.40625 1.390625q0 1.59375 1.015625 2.21875q1.03125 0.625 2.78125 0.625zm-0.25 -14.921875q1.796875 0 3.015625 0.46875q1.234375 0.46875 1.984375 1.3125q0.765625 0.84375 1.078125 2.015625q0.328125 1.171875 0.328125 2.578125l0 10.40625q-0.390625 0.0625 -1.078125 0.171875q-0.6875 0.109375 -1.5625 0.203125q-0.859375 0.09375 -1.875 0.171875q-1.0 0.09375 -1.984375 0.09375q-1.40625 0 -2.59375 -0.296875q-1.1875 -0.28125 -2.046875 -0.90625q-0.859375 -0.625 -1.34375 -1.640625q-0.484375 -1.03125 -0.484375 -2.46875q0 -1.390625 0.5625 -2.375q0.5625 -0.984375 1.515625 -1.59375q0.96875 -0.609375 2.234375 -0.890625q1.28125 -0.296875 2.703125 -0.296875q0.4375 0 0.921875 0.046875q0.484375 0.046875 0.90625 0.125q0.4375 0.078125 0.75 0.140625q0.328125 0.0625 0.453125 0.09375l0 -0.828125q0 -0.734375 -0.15625 -1.453125q-0.15625 -0.71875 -0.578125 -1.28125q-0.421875 -0.5625 -1.140625 -0.890625q-0.71875 -0.34375 -1.859375 -0.34375q-1.484375 0 -2.59375 0.21875q-1.09375 0.203125 -1.640625 0.421875l-0.34375 -2.453125q0.578125 -0.265625 1.921875 -0.5q1.34375 -0.25 2.90625 -0.25zm10.391541 8.78125q0 -2.21875 0.640625 -3.859375q0.640625 -1.65625 1.703125 -2.734375q1.0625 -1.09375 2.4375 -1.640625q1.375 -0.546875 2.8125 -0.546875q3.359375 0 5.140625 2.109375q1.796875 2.09375 1.796875 6.375q0 0.1875 0 0.5q0 0.296875 -0.03125 0.5625l-11.390625 0q0.1875 2.59375 1.5 3.9375q1.3125 1.34375 4.109375 1.34375q1.5625 0 2.625 -0.265625q1.078125 -0.28125 1.625 -0.546875l0.421875 2.5q-0.546875 0.296875 -1.90625 0.609375q-1.359375 0.328125 -3.09375 0.328125q-2.171875 0 -3.765625 -0.65625q-1.578125 -0.65625 -2.609375 -1.8125q-1.015625 -1.15625 -1.515625 -2.734375q-0.5 -1.59375 -0.5 -3.46875zm11.4375 -1.640625q0.03125 -2.015625 -1.015625 -3.3125q-1.03125 -1.296875 -2.859375 -1.296875q-1.03125 0 -1.8125 0.40625q-0.78125 0.390625 -1.328125 1.03125q-0.546875 0.640625 -0.859375 1.484375q-0.296875 0.828125 -0.390625 1.6875l8.265625 0zm7.3880005 -6.234375q1.015625 -0.265625 2.6875 -0.546875q1.6875 -0.28125 3.90625 -0.28125q1.59375 0 2.671875 0.4375q1.09375 0.421875 1.828125 1.25q0.234375 -0.15625 0.703125 -0.4375q0.484375 -0.296875 1.1875 -0.5625q0.703125 -0.28125 1.5625 -0.484375q0.875 -0.203125 1.859375 -0.203125q1.921875 0 3.140625 0.5625q1.21875 0.546875 1.90625 1.578125q0.6875 1.015625 0.921875 2.421875q0.25 1.40625 0.25 3.078125l0 9.34375l-2.984375 0l0 -8.703125q0 -1.46875 -0.140625 -2.515625q-0.140625 -1.0625 -0.546875 -1.765625q-0.390625 -0.71875 -1.078125 -1.046875q-0.6875 -0.34375 -1.78125 -0.34375q-1.5 0 -2.484375 0.40625q-0.96875 0.40625 -1.328125 0.71875q0.265625 0.828125 0.390625 1.828125q0.125 0.984375 0.125 2.078125l0 9.34375l-2.96875 0l0 -8.703125q0 -1.46875 -0.171875 -2.515625q-0.15625 -1.0625 -0.5625 -1.765625q-0.390625 -0.71875 -1.078125 -1.046875q-0.6875 -0.34375 -1.75 -0.34375q-0.4375 0 -0.953125 0.046875q-0.515625 0.03125 -0.984375 0.078125q-0.453125 0.046875 -0.84375 0.109375q-0.390625 0.0625 -0.515625 0.09375l0 14.046875l-2.96875 0l0 -16.15625zm42.239563 7.84375q0 1.96875 -0.578125 3.578125q-0.578125 1.59375 -1.625 2.75q-1.03125 1.15625 -2.46875 1.78125q-1.4375 0.625 -3.140625 0.625q-1.6875 0 -3.140625 -0.625q-1.4375 -0.625 -2.484375 -1.78125q-1.03125 -1.15625 -1.609375 -2.75q-0.578125 -1.609375 -0.578125 -3.578125q0 -1.953125 0.578125 -3.5625q0.578125 -1.625 1.609375 -2.78125q1.046875 -1.15625 2.484375 -1.78125q1.453125 -0.625 3.140625 -0.625q1.703125 0 3.140625 0.625q1.4375 0.625 2.46875 1.78125q1.046875 1.15625 1.625 2.78125q0.578125 1.609375 0.578125 3.5625zm-3.109375 0q0 -2.828125 -1.265625 -4.46875q-1.265625 -1.65625 -3.4375 -1.65625q-2.171875 0 -3.4375 1.65625q-1.265625 1.640625 -1.265625 4.46875q0 2.8125 1.265625 4.46875q1.265625 1.640625 3.4375 1.640625q2.171875 0 3.4375 -1.640625q1.265625 -1.65625 1.265625 -4.46875zm7.301941 -7.84375q1.015625 -0.265625 2.703125 -0.546875q1.703125 -0.28125 3.921875 -0.28125q1.984375 0 3.296875 0.5625q1.3125 0.546875 2.09375 1.5625q0.78125 1.0 1.09375 2.40625q0.328125 1.40625 0.328125 3.109375l0 9.34375l-2.96875 0l0 -8.703125q0 -1.53125 -0.21875 -2.625q-0.203125 -1.09375 -0.6875 -1.765625q-0.484375 -0.671875 -1.28125 -0.96875q-0.796875 -0.3125 -1.984375 -0.3125q-0.46875 0 -0.984375 0.046875q-0.515625 0.03125 -0.984375 0.078125q-0.453125 0.046875 -0.828125 0.109375q-0.359375 0.0625 -0.53125 0.09375l0 14.046875l-2.96875 0l0 -16.15625z" fill-rule="nonzero"></path><path fill="#000000" fill-opacity="0.0" d="m560.0 192.0l0 48.0" fill-rule="nonzero"></path><path stroke="#674ea7" stroke-width="3.0" stroke-linejoin="round" stroke-linecap="butt" d="m560.0 210.0l0 12.0" fill-rule="evenodd"></path><path fill="#674ea7" stroke="#674ea7" stroke-width="3.0" stroke-linecap="butt" d="m564.9552 210.0l-4.9552 -13.614288l-4.9552 13.614288z" fill-rule="evenodd"></path><path fill="#674ea7" stroke="#674ea7" stroke-width="3.0" stroke-linecap="butt" d="m555.0448 222.0l4.9552 13.614288l4.9552 -13.614288z" fill-rule="evenodd"></path><path fill="#000000" fill-opacity="0.0" d="m216.0 320.0l0 48.0" fill-rule="nonzero"></path><path stroke="#e69138" stroke-width="3.0" stroke-linejoin="round" stroke-linecap="butt" d="m216.0 338.0l0 12.0" fill-rule="evenodd"></path><path fill="#e69138" stroke="#e69138" stroke-width="3.0" stroke-linecap="butt" d="m220.9552 338.0l-4.9552 -13.614288l-4.9552 13.614288z" fill-rule="evenodd"></path><path fill="#e69138" stroke="#e69138" stroke-width="3.0" stroke-linecap="butt" d="m211.0448 350.0l4.9552 13.614288l4.9552 -13.614288z" fill-rule="evenodd"></path><path fill="#ffffff" d="m16.0 480.0l296.0 0l0 64.0l-296.0 0z" fill-rule="nonzero"></path><path stroke="#cc0000" stroke-width="3.0" stroke-linejoin="round" stroke-linecap="butt" d="m16.0 480.0l296.0 0l0 64.0l-296.0 0z" fill-rule="nonzero"></path><path fill="#000000" fill-opacity="0.0" d="m24.0 488.0l280.0 0l0 48.0l-280.0 0z" fill-rule="nonzero"></path><path fill="#cc0000" d="m74.57079 508.67313q-1.34375 4.2968445 -2.71875 7.9530945q-1.375 3.640625 -2.75 7.09375l-3.109375 0q-1.6875 -4.890625 -2.984375 -10.328125q-1.296875 -5.4530945 -2.421875 -11.8437195l3.265625 0q0.453125 2.484375 0.921875 4.984375q0.484375 2.5 1.0 4.859375q0.515625 2.3437195 1.015625 4.4843445q0.515625 2.140625 1.0625 3.96875q1.28125 -3.359375 2.71875 -7.375q1.4375 -4.0155945 2.6875 -8.2968445l2.6875 0q1.25 4.28125 2.71875 8.2968445q1.484375 4.015625 2.765625 7.375q0.5 -1.78125 1.015625 -3.921875q0.515625 -2.15625 1.0 -4.4999695q0.5 -2.359375 0.984375 -4.875q0.484375 -2.515625 0.921875 -5.0l3.171875 0q-1.140625 6.390625 -2.4375 11.8437195q-1.296875 5.4375 -2.96875 10.328125l-3.109375 0q-1.40625 -3.453125 -2.75 -7.09375q-1.34375 -3.65625 -2.6875 -7.9530945zm16.478058 6.7655945q0 -2.21875 0.640625 -3.8593445q0.640625 -1.65625 1.703125 -2.734375q1.0625 -1.09375 2.4375 -1.640625q1.375 -0.546875 2.8125 -0.546875q3.359375 0 5.140625 2.109375q1.796875 2.09375 1.796875 6.3749695q0 0.1875 0 0.5q0 0.296875 -0.03125 0.5625l-11.390625 0q0.1875 2.59375 1.5 3.9375q1.3125 1.34375 4.109375 1.34375q1.5625 0 2.625 -0.265625q1.078125 -0.28125 1.625 -0.546875l0.421875 2.5q-0.546875 0.296875 -1.90625 0.609375q-1.359375 0.328125 -3.09375 0.328125q-2.171875 0 -3.765625 -0.65625q-1.578125 -0.65625 -2.609375 -1.8125q-1.015625 -1.15625 -1.515625 -2.734375q-0.5 -1.59375 -0.5 -3.46875zm11.4375 -1.640625q0.03125 -2.0155945 -1.015625 -3.3124695q-1.03125 -1.296875 -2.859375 -1.296875q-1.03125 0 -1.8125 0.40625q-0.78125 0.390625 -1.328125 1.03125q-0.546875 0.640625 -0.859375 1.4843445q-0.296875 0.828125 -0.390625 1.6875l8.265625 0zm10.356781 -5.9843445q0.546875 -0.34375 1.640625 -0.734375q1.109375 -0.390625 2.5625 -0.390625q1.78125 0 3.171875 0.640625q1.390625 0.640625 2.34375 1.796875q0.96875 1.15625 1.46875 2.765625q0.5 1.5937195 0.5 3.5155945q0 2.015625 -0.59375 3.625q-0.59375 1.609375 -1.6875 2.734375q-1.078125 1.125 -2.625 1.734375q-1.53125 0.609375 -3.453125 0.609375q-2.078125 0 -3.6875 -0.296875q-1.59375 -0.28125 -2.609375 -0.578125l0 -23.828094l2.96875 -0.515625l0 8.921875zm0 13.3124695q0.453125 0.125 1.265625 0.25q0.8125 0.109375 2.03125 0.109375q2.40625 0 3.84375 -1.578125q1.4375 -1.59375 1.4375 -4.5q0 -1.28125 -0.265625 -2.40625q-0.25 -1.1249695 -0.828125 -1.9374695q-0.5625 -0.8125 -1.484375 -1.28125q-0.90625 -0.46875 -2.1875 -0.46875q-1.21875 0 -2.25 0.421875q-1.015625 0.421875 -1.5625 0.859375l0 10.5312195zm23.458809 2.59375l0 -22.171844l13.375 0l0 2.65625l-10.265625 0l0 6.6875l9.109375 0l0 2.6249695l-9.109375 0l0 10.203125l-3.109375 0zm23.137146 -16.984344q0.390625 0 0.875 0.046875q0.5 0.046875 0.984375 0.125q0.484375 0.078125 0.875 0.15625q0.40625 0.078125 0.59375 0.140625l-0.515625 2.59375q-0.34375 -0.125 -1.171875 -0.296875q-0.8125 -0.1875 -2.09375 -0.1875q-0.828125 0 -1.640625 0.1875q-0.8125 0.171875 -1.078125 0.234375l0 13.9843445l-2.96875 0l0 -15.9374695q1.046875 -0.375 2.609375 -0.703125q1.578125 -0.34375 3.53125 -0.34375zm20.898895 8.6718445q0 1.96875 -0.578125 3.578125q-0.578125 1.59375 -1.625 2.75q-1.03125 1.15625 -2.46875 1.78125q-1.4375 0.625 -3.140625 0.625q-1.6875 0 -3.140625 -0.625q-1.4375 -0.625 -2.484375 -1.78125q-1.03125 -1.15625 -1.609375 -2.75q-0.578125 -1.609375 -0.578125 -3.578125q0 -1.953125 0.578125 -3.5624695q0.578125 -1.625 1.609375 -2.78125q1.046875 -1.15625 2.484375 -1.78125q1.453125 -0.625 3.140625 -0.625q1.703125 0 3.140625 0.625q1.4375 0.625 2.46875 1.78125q1.046875 1.15625 1.625 2.78125q0.578125 1.6093445 0.578125 3.5624695zm-3.109375 0q0 -2.828125 -1.265625 -4.4687195q-1.265625 -1.65625 -3.4375 -1.65625q-2.171875 0 -3.4375 1.65625q-1.265625 1.6405945 -1.265625 4.4687195q0 2.8125 1.265625 4.46875q1.265625 1.640625 3.4375 1.640625q2.171875 0 3.4375 -1.640625q1.265625 -1.65625 1.265625 -4.46875zm7.3019104 -7.8437195q1.015625 -0.265625 2.703125 -0.546875q1.703125 -0.28125 3.921875 -0.28125q1.984375 0 3.296875 0.5625q1.3125 0.546875 2.09375 1.5625q0.78125 1.0 1.09375 2.40625q0.328125 1.4062195 0.328125 3.1093445l0 9.34375l-2.96875 0l0 -8.703125q0 -1.53125 -0.21875 -2.625q-0.203125 -1.0937195 -0.6875 -1.7655945q-0.484375 -0.671875 -1.28125 -0.96875q-0.796875 -0.3125 -1.984375 -0.3125q-0.46875 0 -0.984375 0.046875q-0.515625 0.03125 -0.984375 0.078125q-0.453125 0.046875 -0.828125 0.109375q-0.359375 0.0625 -0.53125 0.09375l0 14.0468445l-2.96875 0l0 -16.15622zm21.149292 -0.484375l6.296875 0l0 2.5l-6.296875 0l0 7.6718445q0 1.25 0.1875 2.078125q0.203125 0.8125 0.578125 1.28125q0.390625 0.453125 0.953125 0.65625q0.578125 0.1875 1.359375 0.1875q1.34375 0 2.15625 -0.296875q0.8125 -0.3125 1.140625 -0.453125l0.5625 2.46875q-0.4375 0.234375 -1.5625 0.5625q-1.125 0.34375 -2.5625 0.34375q-1.6875 0 -2.796875 -0.4375q-1.109375 -0.4375 -1.78125 -1.296875q-0.671875 -0.859375 -0.9375 -2.125q-0.265625 -1.265625 -0.265625 -2.9375l0 -14.8437195l2.96875 -0.515625l0 5.15625zm9.145294 8.3593445q0 -2.21875 0.640625 -3.8593445q0.640625 -1.65625 1.703125 -2.734375q1.0625 -1.09375 2.4375 -1.640625q1.375 -0.546875 2.8125 -0.546875q3.359375 0 5.140625 2.109375q1.796875 2.09375 1.796875 6.3749695q0 0.1875 0 0.5q0 0.296875 -0.03125 0.5625l-11.390625 0q0.1875 2.59375 1.5 3.9375q1.3125 1.34375 4.109375 1.34375q1.5625 0 2.625 -0.265625q1.078125 -0.28125 1.625 -0.546875l0.421875 2.5q-0.546875 0.296875 -1.90625 0.609375q-1.359375 0.328125 -3.09375 0.328125q-2.171875 0 -3.765625 -0.65625q-1.578125 -0.65625 -2.609375 -1.8125q-1.015625 -1.15625 -1.515625 -2.734375q-0.5 -1.59375 -0.5 -3.46875zm11.4375 -1.640625q0.03125 -2.0155945 -1.015625 -3.3124695q-1.03125 -1.296875 -2.859375 -1.296875q-1.03125 0 -1.8125 0.40625q-0.78125 0.390625 -1.328125 1.03125q-0.546875 0.640625 -0.859375 1.4843445q-0.296875 0.828125 -0.390625 1.6875l8.265625 0zm7.388031 -6.2343445q1.015625 -0.265625 2.703125 -0.546875q1.703125 -0.28125 3.921875 -0.28125q1.984375 0 3.296875 0.5625q1.3125 0.546875 2.09375 1.5625q0.78125 1.0 1.09375 2.40625q0.328125 1.4062195 0.328125 3.1093445l0 9.34375l-2.96875 0l0 -8.703125q0 -1.53125 -0.21875 -2.625q-0.203125 -1.0937195 -0.6875 -1.7655945q-0.484375 -0.671875 -1.28125 -0.96875q-0.796875 -0.3125 -1.984375 -0.3125q-0.46875 0 -0.984375 0.046875q-0.515625 0.03125 -0.984375 0.078125q-0.453125 0.046875 -0.828125 0.109375q-0.359375 0.0625 -0.53125 0.09375l0 14.0468445l-2.96875 0l0 -16.15622zm29.118042 3.03125q-0.546875 -0.4375 -1.578125 -0.859375q-1.015625 -0.421875 -2.234375 -0.421875q-1.28125 0 -2.1875 0.46875q-0.90625 0.46875 -1.484375 1.28125q-0.578125 0.8125 -0.84375 1.9374695q-0.25 1.125 -0.25 2.40625q0 2.90625 1.4375 4.5q1.4375 1.578125 3.84375 1.578125q1.21875 0 2.03125 -0.109375q0.8125 -0.125 1.265625 -0.25l0 -10.5312195zm0 -11.1875l2.96875 -0.515625l0 24.34372q-1.015625 0.296875 -2.625 0.578125q-1.59375 0.296875 -3.671875 0.296875q-1.921875 0 -3.46875 -0.609375q-1.53125 -0.609375 -2.625 -1.734375q-1.078125 -1.125 -1.671875 -2.734375q-0.59375 -1.609375 -0.59375 -3.625q0 -1.921875 0.5 -3.5155945q0.5 -1.609375 1.453125 -2.765625q0.96875 -1.15625 2.359375 -1.796875q1.390625 -0.640625 3.1875 -0.640625q1.4375 0 2.53125 0.390625q1.109375 0.390625 1.65625 0.734375l0 -8.40625z" fill-rule="nonzero"></path><path fill="#000000" fill-opacity="0.0" d="m168.0 432.0l0 48.0" fill-rule="nonzero"></path><path stroke="#6aa84f" stroke-width="3.0" stroke-linejoin="round" stroke-linecap="butt" d="m168.0 450.0l0 12.0" fill-rule="evenodd"></path><path fill="#6aa84f" stroke="#6aa84f" stroke-width="3.0" stroke-linecap="butt" d="m172.9552 450.0l-4.9552 -13.614288l-4.9552 13.614288z" fill-rule="evenodd"></path><path fill="#6aa84f" stroke="#6aa84f" stroke-width="3.0" stroke-linecap="butt" d="m163.0448 462.0l4.9552 13.614288l4.9552 -13.614288z" fill-rule="evenodd"></path><path fill="#ffffff" d="m648.0 480.0l296.0 0l0 64.0l-296.0 0z" fill-rule="nonzero"></path><path stroke="#cc0000" stroke-width="3.0" stroke-linejoin="round" stroke-linecap="butt" d="m648.0 480.0l296.0 0l0 64.0l-296.0 0z" fill-rule="nonzero"></path><path fill="#000000" fill-opacity="0.0" d="m656.0 488.0l280.0 0l0 48.0l-280.0 0z" fill-rule="nonzero"></path><path fill="#cc0000" d="m763.93396 523.72l0 -22.171844l13.53125 0l0 2.65625l-10.421875 0l0 6.59375l9.28125 0l0 2.5780945l-9.28125 0l0 7.6875l11.234375 0l0 2.65625l-14.34375 0zm20.865723 -16.640594l6.296875 0l0 2.5l-6.296875 0l0 7.6718445q0 1.25 0.1875 2.078125q0.203125 0.8125 0.578125 1.28125q0.390625 0.453125 0.953125 0.65625q0.578125 0.1875 1.359375 0.1875q1.34375 0 2.15625 -0.296875q0.8125 -0.3125 1.140625 -0.453125l0.5625 2.46875q-0.4375 0.234375 -1.5625 0.5625q-1.125 0.34375 -2.5625 0.34375q-1.6875 0 -2.796875 -0.4375q-1.109314 -0.4375 -1.781189 -1.296875q-0.671875 -0.859375 -0.9375 -2.125q-0.265625 -1.265625 -0.265625 -2.9375l0 -14.8437195l2.968689 -0.515625l0 5.15625zm17.3172 17.03122q-2.015625 0 -3.546875 -0.640625q-1.515625 -0.640625 -2.5625 -1.796875q-1.03125 -1.15625 -1.546875 -2.734375q-0.515625 -1.59375 -0.515625 -3.5q0 -1.921875 0.5625 -3.5155945q0.5625 -1.609375 1.578125 -2.78125q1.03125 -1.171875 2.515625 -1.828125q1.5 -0.65625 3.3125 -0.65625q1.125 0 2.234375 0.203125q1.125 0.1875 2.15625 0.609375l-0.671875 2.515625q-0.671875 -0.3125 -1.5625 -0.5q-0.875 -0.203125 -1.859375 -0.203125q-2.5 0 -3.828125 1.578125q-1.328125 1.5624695 -1.328125 4.5780945q0 1.34375 0.296875 2.46875q0.3125 1.109375 0.96875 1.90625q0.65625 0.796875 1.671875 1.234375q1.03125 0.4375 2.5 0.4375q1.1875 0 2.140625 -0.21875q0.96875 -0.234375 1.515625 -0.484375l0.40625 2.484375q-0.25 0.171875 -0.734375 0.3125q-0.46875 0.140625 -1.078125 0.25q-0.609375 0.109375 -1.296875 0.1875q-0.6875 0.09375 -1.328125 0.09375zm11.161316 -2.125q0 0.875 -0.578125 1.515625q-0.578125 0.640625 -1.5625 0.640625q-1.0 0 -1.578125 -0.640625q-0.5625 -0.640625 -0.5625 -1.515625q0 -0.859375 0.5625 -1.5q0.578125 -0.640625 1.578125 -0.640625q0.984375 0 1.5625 0.640625q0.578125 0.640625 0.578125 1.5zm7.8719482 0q0 0.875 -0.578125 1.515625q-0.578125 0.640625 -1.5625 0.640625q-1.0 0 -1.578125 -0.640625q-0.5625 -0.640625 -0.5625 -1.515625q0 -0.859375 0.5625 -1.5q0.578125 -0.640625 1.578125 -0.640625q0.984375 0 1.5625 0.640625q0.578125 0.640625 0.578125 1.5zm7.8720703 0q0 0.875 -0.578125 1.515625q-0.578125 0.640625 -1.5625 0.640625q-1.0 0 -1.578125 -0.640625q-0.5625 -0.640625 -0.5625 -1.515625q0 -0.859375 0.5625 -1.5q0.578125 -0.640625 1.578125 -0.640625q0.984375 0 1.5625 0.640625q0.578125 0.640625 0.578125 1.5z" fill-rule="nonzero"></path><path fill="#ffffff" d="m332.0 480.0l296.0 0l0 64.0l-296.0 0z" fill-rule="nonzero"></path><path stroke="#cc0000" stroke-width="3.0" stroke-linejoin="round" stroke-linecap="butt" d="m332.0 480.0l296.0 0l0 64.0l-296.0 0z" fill-rule="nonzero"></path><path fill="#000000" fill-opacity="0.0" d="m340.0 488.0l280.0 0l0 48.0l-280.0 0z" fill-rule="nonzero"></path><path fill="#cc0000" d="m398.68106 524.20435q-2.328125 0 -4.25 -0.765625q-1.921875 -0.78125 -3.296875 -2.25q-1.375 -1.46875 -2.125 -3.625q-0.75 -2.15625 -0.75 -4.953125q0 -2.7812195 0.84375 -4.9374695q0.84375 -2.15625 2.28125 -3.625q1.453125 -1.484375 3.359375 -2.25q1.921875 -0.765625 4.109375 -0.765625q1.375 0 2.46875 0.203125q1.109375 0.1875 1.921875 0.4375q0.8125 0.25 1.328125 0.515625q0.515625 0.25 0.703125 0.375l-0.890625 2.5625q-0.28125 -0.1875 -0.828125 -0.40625q-0.546875 -0.234375 -1.234375 -0.453125q-0.6875 -0.234375 -1.515625 -0.375q-0.8125 -0.140625 -1.640625 -0.140625q-1.75 0 -3.171875 0.609375q-1.40625 0.609375 -2.40625 1.765625q-0.984375 1.140625 -1.515625 2.796875q-0.515625 1.640625 -0.515625 3.6874695q0 1.984375 0.453125 3.625q0.46875 1.625 1.390625 2.796875q0.9375 1.171875 2.328125 1.8125q1.390625 0.640625 3.25 0.640625q2.140625 0 3.546875 -0.453125q1.40625 -0.453125 2.109375 -0.796875l0.8125 2.5625q-0.234375 0.15625 -0.8125 0.40625q-0.578125 0.234375 -1.4375 0.453125q-0.859375 0.21875 -2.015625 0.375q-1.15625 0.171875 -2.5 0.171875zm23.652557 -3.171875l0 2.6875l-13.34375 0l0 -22.171844l3.109375 0l0 19.484344l10.234375 0zm3.2642822 -19.484344l3.109375 0l0 22.171844l-3.109375 0l0 -22.171844zm16.0 22.171844l0 -22.171844l13.375 0l0 2.65625l-10.265625 0l0 6.6875l9.109375 0l0 2.6249695l-9.109375 0l0 10.203125l-3.109375 0zm23.137177 -16.984344q0.390625 0 0.875 0.046875q0.5 0.046875 0.984375 0.125q0.484375 0.078125 0.875 0.15625q0.40625 0.078125 0.59375 0.140625l-0.515625 2.59375q-0.34375 -0.125 -1.171875 -0.296875q-0.8125 -0.1875 -2.09375 -0.1875q-0.828125 0 -1.640625 0.1875q-0.8125 0.171875 -1.078125 0.234375l0 13.9843445l-2.96875 0l0 -15.9374695q1.046875 -0.375 2.609375 -0.703125q1.578125 -0.34375 3.53125 -0.34375zm20.898895 8.6718445q0 1.96875 -0.578125 3.578125q-0.578125 1.59375 -1.625 2.75q-1.03125 1.15625 -2.46875 1.78125q-1.4375 0.625 -3.140625 0.625q-1.6875 0 -3.140625 -0.625q-1.4375 -0.625 -2.484375 -1.78125q-1.03125 -1.15625 -1.609375 -2.75q-0.578125 -1.609375 -0.578125 -3.578125q0 -1.953125 0.578125 -3.5624695q0.578125 -1.625 1.609375 -2.78125q1.046875 -1.15625 2.484375 -1.78125q1.453125 -0.625 3.140625 -0.625q1.703125 0 3.140625 0.625q1.4375 0.625 2.46875 1.78125q1.046875 1.15625 1.625 2.78125q0.578125 1.6093445 0.578125 3.5624695zm-3.109375 0q0 -2.828125 -1.265625 -4.4687195q-1.265625 -1.65625 -3.4375 -1.65625q-2.171875 0 -3.4375 1.65625q-1.265625 1.6405945 -1.265625 4.4687195q0 2.8125 1.265625 4.46875q1.265625 1.640625 3.4375 1.640625q2.171875 0 3.4375 -1.640625q1.265625 -1.65625 1.265625 -4.46875zm7.3019104 -7.8437195q1.015625 -0.265625 2.703125 -0.546875q1.703125 -0.28125 3.921875 -0.28125q1.984375 0 3.296875 0.5625q1.3125 0.546875 2.09375 1.5625q0.78125 1.0 1.09375 2.40625q0.328125 1.4062195 0.328125 3.1093445l0 9.34375l-2.96875 0l0 -8.703125q0 -1.53125 -0.21875 -2.625q-0.203125 -1.0937195 -0.6875 -1.7655945q-0.484375 -0.671875 -1.28125 -0.96875q-0.796875 -0.3125 -1.984375 -0.3125q-0.46875 0 -0.984375 0.046875q-0.515625 0.03125 -0.984375 0.078125q-0.453125 0.046875 -0.828125 0.109375q-0.359375 0.0625 -0.53125 0.09375l0 14.0468445l-2.96875 0l0 -16.15622zm21.149292 -0.484375l6.2969055 0l0 2.5l-6.2969055 0l0 7.6718445q0 1.25 0.1875 2.078125q0.203125 0.8125 0.578125 1.28125q0.39065552 0.453125 0.9531555 0.65625q0.578125 0.1875 1.359375 0.1875q1.34375 0 2.15625 -0.296875q0.8125 -0.3125 1.140625 -0.453125l0.5625 2.46875q-0.4375 0.234375 -1.5625 0.5625q-1.125 0.34375 -2.5625 0.34375q-1.6875 0 -2.7969055 -0.4375q-1.109375 -0.4375 -1.78125 -1.296875q-0.671875 -0.859375 -0.9375 -2.125q-0.265625 -1.265625 -0.265625 -2.9375l0 -14.8437195l2.96875 -0.515625l0 5.15625zm9.145294 8.3593445q0 -2.21875 0.640625 -3.8593445q0.640625 -1.65625 1.703125 -2.734375q1.0625 -1.09375 2.4375 -1.640625q1.375 -0.546875 2.8125 -0.546875q3.359375 0 5.140625 2.109375q1.796875 2.09375 1.796875 6.3749695q0 0.1875 0 0.5q0 0.296875 -0.03125 0.5625l-11.390625 0q0.1875 2.59375 1.5 3.9375q1.3125 1.34375 4.109375 1.34375q1.5625 0 2.625 -0.265625q1.078125 -0.28125 1.625 -0.546875l0.421875 2.5q-0.546875 0.296875 -1.90625 0.609375q-1.359375 0.328125 -3.09375 0.328125q-2.171875 0 -3.765625 -0.65625q-1.578125 -0.65625 -2.609375 -1.8125q-1.015625 -1.15625 -1.515625 -2.734375q-0.5 -1.59375 -0.5 -3.46875zm11.4375 -1.640625q0.03125 -2.0155945 -1.015625 -3.3124695q-1.03125 -1.296875 -2.859375 -1.296875q-1.03125 0 -1.8125 0.40625q-0.78125 0.390625 -1.328125 1.03125q-0.546875 0.640625 -0.859375 1.4843445q-0.296875 0.828125 -0.390625 1.6875l8.265625 0zm7.3880005 -6.2343445q1.015625 -0.265625 2.703125 -0.546875q1.703125 -0.28125 3.921875 -0.28125q1.984375 0 3.296875 0.5625q1.3125 0.546875 2.09375 1.5625q0.78125 1.0 1.09375 2.40625q0.328125 1.4062195 0.328125 3.1093445l0 9.34375l-2.96875 0l0 -8.703125q0 -1.53125 -0.21875 -2.625q-0.203125 -1.0937195 -0.6875 -1.7655945q-0.484375 -0.671875 -1.28125 -0.96875q-0.796875 -0.3125 -1.984375 -0.3125q-0.46875 0 -0.984375 0.046875q-0.515625 0.03125 -0.984375 0.078125q-0.453125 0.046875 -0.828125 0.109375q-0.359375 0.0625 -0.53125 0.09375l0 14.0468445l-2.96875 0l0 -16.15622zm29.118042 3.03125q-0.546875 -0.4375 -1.578125 -0.859375q-1.015625 -0.421875 -2.234375 -0.421875q-1.28125 0 -2.1875 0.46875q-0.90625 0.46875 -1.484375 1.28125q-0.578125 0.8125 -0.84375 1.9374695q-0.25 1.125 -0.25 2.40625q0 2.90625 1.4375 4.5q1.4375 1.578125 3.84375 1.578125q1.21875 0 2.03125 -0.109375q0.8125 -0.125 1.265625 -0.25l0 -10.5312195zm0 -11.1875l2.96875 -0.515625l0 24.34372q-1.015625 0.296875 -2.625 0.578125q-1.59375 0.296875 -3.671875 0.296875q-1.921875 0 -3.46875 -0.609375q-1.53125 -0.609375 -2.625 -1.734375q-1.078125 -1.125 -1.671875 -2.734375q-0.59375 -1.609375 -0.59375 -3.625q0 -1.921875 0.5 -3.5155945q0.5 -1.609375 1.453125 -2.765625q0.96875 -1.15625 2.359375 -1.796875q1.390625 -0.640625 3.1875 -0.640625q1.4375 0 2.53125 0.390625q1.109375 0.390625 1.65625 0.734375l0 -8.40625z" fill-rule="nonzero"></path><path fill="#000000" fill-opacity="0.0" d="m480.0 432.0l0 48.0" fill-rule="nonzero"></path><path stroke="#6aa84f" stroke-width="3.0" stroke-linejoin="round" stroke-linecap="butt" d="m480.0 450.0l0 12.0" fill-rule="evenodd"></path><path fill="#6aa84f" stroke="#6aa84f" stroke-width="3.0" stroke-linecap="butt" d="m484.9552 450.0l-4.9552 -13.614288l-4.9552 13.614288z" fill-rule="evenodd"></path><path fill="#6aa84f" stroke="#6aa84f" stroke-width="3.0" stroke-linecap="butt" d="m475.0448 462.0l4.9552 13.614288l4.9552 -13.614288z" fill-rule="evenodd"></path><path fill="#000000" fill-opacity="0.0" d="m792.0 432.0l0 48.0" fill-rule="nonzero"></path><path stroke="#6aa84f" stroke-width="3.0" stroke-linejoin="round" stroke-linecap="butt" d="m792.0 450.0l0 12.0" fill-rule="evenodd"></path><path fill="#6aa84f" stroke="#6aa84f" stroke-width="3.0" stroke-linecap="butt" d="m796.9552 450.0l-4.9552 -13.614288l-4.9552 13.614288z" fill-rule="evenodd"></path><path fill="#6aa84f" stroke="#6aa84f" stroke-width="3.0" stroke-linecap="butt" d="m787.0448 462.0l4.9552 13.614288l4.9552 -13.614288z" fill-rule="evenodd"></path><path fill="#000000" fill-opacity="0.0" d="m688.0 440.0l96.0 0l0 32.0l-96.0 0z" fill-rule="nonzero"></path><path fill="#6aa84f" d="m716.1315 447.915l2.328125 0l0 16.625l-2.328125 0l0 -7.6875l-8.140625 0l0 7.6875l-2.328125 0l0 -16.625l2.328125 0l0 6.921875l8.140625 0l0 -6.921875zm17.560547 0l0 2.015625l-5.234375 0l0 14.609375l-2.328125 0l0 -14.609375l-5.21875 0l0 -2.015625l12.78125 0zm13.559937 0l0 2.015625l-5.234375 0l0 14.609375l-2.328125 0l0 -14.609375l-5.21875 0l0 -2.015625l12.78125 0zm6.8724976 -0.171875q3.5 0 5.375 1.328125q1.890625 1.328125 1.890625 3.96875q0 1.4375 -0.515625 2.46875q-0.515625 1.015625 -1.484375 1.65625q-0.96875 0.625 -2.375 0.921875q-1.390625 0.28125 -3.140625 0.28125l-1.84375 0l0 6.171875l-2.328125 0l0 -16.390625q0.984375 -0.234375 2.1875 -0.3125q1.21875 -0.09375 2.234375 -0.09375zm0.1875 2.03125q-1.484375 0 -2.28125 0.078125l0 6.53125l1.75 0q1.203125 0 2.15625 -0.15625q0.96875 -0.15625 1.625 -0.53125q0.65625 -0.375 1.015625 -1.015625q0.359375 -0.65625 0.359375 -1.65625q0 -0.96875 -0.375 -1.59375q-0.359375 -0.625 -1.0 -0.984375q-0.640625 -0.375 -1.484375 -0.515625q-0.828125 -0.15625 -1.765625 -0.15625zm13.84198 13.109375q3.65625 0 3.65625 -2.5q0 -0.765625 -0.328125 -1.296875q-0.328125 -0.546875 -0.875 -0.9375q-0.546875 -0.40625 -1.265625 -0.6875q-0.703125 -0.296875 -1.5 -0.578125q-0.90625 -0.3125 -1.71875 -0.703125q-0.8125 -0.40625 -1.421875 -0.9375q-0.59375 -0.546875 -0.953125 -1.28125q-0.34375 -0.75 -0.34375 -1.8125q0 -2.171875 1.484375 -3.390625q1.5 -1.234375 4.109375 -1.234375q1.515625 0 2.75 0.328125q1.234375 0.3125 1.8125 0.703125l-0.75 1.890625q-0.5 -0.3125 -1.5 -0.609375q-0.984375 -0.296875 -2.3125 -0.296875q-0.671875 0 -1.25 0.140625q-0.578125 0.140625 -1.015625 0.4375q-0.421875 0.28125 -0.671875 0.734375q-0.25 0.4375 -0.25 1.046875q0 0.671875 0.265625 1.125q0.265625 0.453125 0.734375 0.796875q0.484375 0.34375 1.125 0.640625q0.640625 0.28125 1.40625 0.578125q1.078125 0.421875 1.96875 0.859375q0.90625 0.4375 1.5625 1.03125q0.65625 0.59375 1.015625 1.421875q0.375 0.828125 0.375 2.015625q0 2.1875 -1.609375 3.359375q-1.59375 1.171875 -4.5 1.171875q-0.984375 0 -1.8125 -0.140625q-0.828125 -0.125 -1.484375 -0.296875q-0.640625 -0.1875 -1.109375 -0.390625q-0.453125 -0.203125 -0.71875 -0.34375l0.6875 -1.921875q0.5625 0.3125 1.6875 0.703125q1.125 0.375 2.75 0.375z" fill-rule="nonzero"></path><path fill="#000000" fill-opacity="0.0" d="m376.0 440.0l96.0 0l0 32.0l-96.0 0z" fill-rule="nonzero"></path><path fill="#6aa84f" d="m404.13144 447.915l2.328125 0l0 16.625l-2.328125 0l0 -7.6875l-8.140625 0l0 7.6875l-2.328125 0l0 -16.625l2.328125 0l0 6.921875l8.140625 0l0 -6.921875zm17.560577 0l0 2.015625l-5.234375 0l0 14.609375l-2.328125 0l0 -14.609375l-5.21875 0l0 -2.015625l12.78125 0zm13.559967 0l0 2.015625l-5.234375 0l0 14.609375l-2.328125 0l0 -14.609375l-5.21875 0l0 -2.015625l12.78125 0zm6.872467 -0.171875q3.5 0 5.375 1.328125q1.890625 1.328125 1.890625 3.96875q0 1.4375 -0.515625 2.46875q-0.515625 1.015625 -1.484375 1.65625q-0.96875 0.625 -2.375 0.921875q-1.390625 0.28125 -3.140625 0.28125l-1.84375 0l0 6.171875l-2.328125 0l0 -16.390625q0.984375 -0.234375 2.1875 -0.3125q1.21875 -0.09375 2.234375 -0.09375zm0.1875 2.03125q-1.484375 0 -2.28125 0.078125l0 6.53125l1.75 0q1.203125 0 2.15625 -0.15625q0.96875 -0.15625 1.625 -0.53125q0.65625 -0.375 1.015625 -1.015625q0.359375 -0.65625 0.359375 -1.65625q0 -0.96875 -0.375 -1.59375q-0.359375 -0.625 -1.0 -0.984375q-0.640625 -0.375 -1.484375 -0.515625q-0.828125 -0.15625 -1.765625 -0.15625zm13.84198 13.109375q3.65625 0 3.65625 -2.5q0 -0.765625 -0.328125 -1.296875q-0.328125 -0.546875 -0.875 -0.9375q-0.546875 -0.40625 -1.265625 -0.6875q-0.703125 -0.296875 -1.5 -0.578125q-0.90625 -0.3125 -1.71875 -0.703125q-0.8125 -0.40625 -1.421875 -0.9375q-0.59375 -0.546875 -0.953125 -1.28125q-0.34375 -0.75 -0.34375 -1.8125q0 -2.171875 1.484375 -3.390625q1.5 -1.234375 4.109375 -1.234375q1.515625 0 2.75 0.328125q1.234375 0.3125 1.8125 0.703125l-0.75 1.890625q-0.5 -0.3125 -1.5 -0.609375q-0.984375 -0.296875 -2.3125 -0.296875q-0.671875 0 -1.25 0.140625q-0.578125 0.140625 -1.015625 0.4375q-0.421875 0.28125 -0.671875 0.734375q-0.25 0.4375 -0.25 1.046875q0 0.671875 0.265625 1.125q0.265625 0.453125 0.734375 0.796875q0.484375 0.34375 1.125 0.640625q0.640625 0.28125 1.40625 0.578125q1.078125 0.421875 1.96875 0.859375q0.90625 0.4375 1.5625 1.03125q0.65625 0.59375 1.015625 1.421875q0.375 0.828125 0.375 2.015625q0 2.1875 -1.609375 3.359375q-1.59375 1.171875 -4.5 1.171875q-0.984375 0 -1.8125 -0.140625q-0.828125 -0.125 -1.484375 -0.296875q-0.640625 -0.1875 -1.109375 -0.390625q-0.453125 -0.203125 -0.71875 -0.34375l0.6875 -1.921875q0.5625 0.3125 1.6875 0.703125q1.125 0.375 2.75 0.375z" fill-rule="nonzero"></path><path fill="#000000" fill-opacity="0.0" d="m64.0 440.0l96.0 0l0 32.0l-96.0 0z" fill-rule="nonzero"></path><path fill="#6aa84f" d="m92.13144 447.915l2.328125 0l0 16.625l-2.328125 0l0 -7.6875l-8.140625 0l0 7.6875l-2.328125 0l0 -16.625l2.328125 0l0 6.921875l8.140625 0l0 -6.921875zm17.560577 0l0 2.015625l-5.234375 0l0 14.609375l-2.328125 0l0 -14.609375l-5.21875 0l0 -2.015625l12.78125 0zm13.559967 0l0 2.015625l-5.234375 0l0 14.609375l-2.328125 0l0 -14.609375l-5.21875 0l0 -2.015625l12.78125 0zm6.872467 -0.171875q3.5 0 5.375 1.328125q1.890625 1.328125 1.890625 3.96875q0 1.4375 -0.515625 2.46875q-0.515625 1.015625 -1.484375 1.65625q-0.96875 0.625 -2.375 0.921875q-1.390625 0.28125 -3.140625 0.28125l-1.84375 0l0 6.171875l-2.328125 0l0 -16.390625q0.984375 -0.234375 2.1875 -0.3125q1.21875 -0.09375 2.234375 -0.09375zm0.1875 2.03125q-1.484375 0 -2.28125 0.078125l0 6.53125l1.75 0q1.203125 0 2.15625 -0.15625q0.96875 -0.15625 1.625 -0.53125q0.65625 -0.375 1.015625 -1.015625q0.359375 -0.65625 0.359375 -1.65625q0 -0.96875 -0.375 -1.59375q-0.359375 -0.625 -1.0 -0.984375q-0.640625 -0.375 -1.484375 -0.515625q-0.828125 -0.15625 -1.765625 -0.15625zm13.841965 13.109375q3.65625 0 3.65625 -2.5q0 -0.765625 -0.328125 -1.296875q-0.328125 -0.546875 -0.875 -0.9375q-0.546875 -0.40625 -1.265625 -0.6875q-0.703125 -0.296875 -1.5 -0.578125q-0.90625 -0.3125 -1.71875 -0.703125q-0.8125 -0.40625 -1.421875 -0.9375q-0.59375 -0.546875 -0.953125 -1.28125q-0.34375 -0.75 -0.34375 -1.8125q0 -2.171875 1.484375 -3.390625q1.5 -1.234375 4.109375 -1.234375q1.515625 0 2.75 0.328125q1.234375 0.3125 1.8125 0.703125l-0.75 1.890625q-0.5 -0.3125 -1.5 -0.609375q-0.984375 -0.296875 -2.3125 -0.296875q-0.671875 0 -1.25 0.140625q-0.578125 0.140625 -1.015625 0.4375q-0.421875 0.28125 -0.671875 0.734375q-0.25 0.4375 -0.25 1.046875q0 0.671875 0.265625 1.125q0.265625 0.453125 0.734375 0.796875q0.484375 0.34375 1.125 0.640625q0.640625 0.28125 1.40625 0.578125q1.078125 0.421875 1.96875 0.859375q0.90625 0.4375 1.5625 1.03125q0.65625 0.59375 1.015625 1.421875q0.375 0.828125 0.375 2.015625q0 2.1875 -1.609375 3.359375q-1.59375 1.171875 -4.5 1.171875q-0.984375 0 -1.8125 -0.140625q-0.828125 -0.125 -1.484375 -0.296875q-0.640625 -0.1875 -1.109375 -0.390625q-0.453125 -0.203125 -0.71875 -0.34375l0.6875 -1.921875q0.5625 0.3125 1.6875 0.703125q1.125 0.375 2.75 0.375z" fill-rule="nonzero"></path></g></svg>

